<svg xmlns="http://www.w3.org/2000/svg" version="1.1" xmlns:xlink="http://www.w3.org/1999/xlink" xmlns:svgjs="http://svgjs.dev/svgjs" width="1500" height="1500" viewBox="0 0 1500 1500"><rect width="1500" height="1500" fill="#000000"></rect><g transform="matrix(0.6666666666666666,0,0,0.6666666666666666,249.39525947777793,445.4439451110402)"><svg viewBox="0 0 396 241" data-background-color="#ffffff" preserveAspectRatio="xMidYMid meet" height="912" width="1500" xmlns="http://www.w3.org/2000/svg" xmlns:xlink="http://www.w3.org/1999/xlink"><g id="tight-bounds" transform="matrix(1,0,0,1,0.23988051355428297,0.22040991486730377)"><svg viewBox="0 0 395.52 240.5591801702654" height="240.5591801702654" width="395.52"><g><svg viewBox="0 0 395.52000000000004 240.55918017026542" height="240.5591801702654" width="395.52"><g transform="matrix(1,0,0,1,0,156.61948560262374)"><svg viewBox="0 0 395.52000000000004 83.93969456764168" height="83.93969456764168" width="395.52000000000004"><g id="textblocktransform"><svg viewBox="0 0 395.52000000000004 83.93969456764168" height="83.93969456764168" width="395.52000000000004" id="textblock"><g><svg viewBox="0 0 395.52000000000004 71.42273435276847" height="71.42273435276847" width="395.52000000000004"><g transform="matrix(1,0,0,1,0,0)"><svg width="395.52000000000004" viewBox="-2.3327299999999997 -36.23715000000001 264.8133 47.819790000000005" height="71.42273435276847" data-palette-color="#8789fe"><path d="M9.809-12.423v0c-1.205 0.193-1.633 1.376-1.285 3.548v0l0.479 2.992c0.884 5.516 1.488 8.91 1.813 10.181 0.325 1.271 0.588 2.151 0.787 2.639 0.2 0.488 0.437 0.916 0.712 1.283v0c0.432 0.592 1.208 1.174 2.325 1.745v0l-10.101 1.618c0.398-1.266 0.594-2.32 0.587-3.163-0.007-0.843-0.051-1.73-0.133-2.663v0c-0.174-1.89-0.514-4.411-1.019-7.564v0c-0.612-3.818-1.232-7.294-1.862-10.426v0l-1.314-6.494c-0.323-1.636-0.648-2.762-0.976-3.378v0c-0.513-0.971-1.231-1.808-2.155-2.511v0l13.281-2.127c3.581-0.574 6.232-0.607 7.954-0.1v0c1.825 0.518 2.891 1.738 3.2 3.66v0c0.375 2.343-0.321 4.443-2.09 6.3v0c-2.082 2.217-5.483 3.704-10.203 4.46zM15.036-17.726c0.42-0.58 0.704-1.169 0.851-1.767 0.146-0.604 0.181-1.146 0.104-1.627-0.078-0.487-0.221-0.957-0.429-1.41-0.208-0.453-0.542-0.831-1.002-1.136v0c-1.009-0.649-2.592-0.8-4.751-0.454v0c-1.297 0.208-2.117 0.501-2.462 0.88v0c-0.634 0.723-0.81 1.963-0.528 3.721v0c0.317 1.981 0.671 3.18 1.062 3.597 0.391 0.417 0.804 0.658 1.24 0.723 0.43 0.073 1.07 0.041 1.919-0.095 0.849-0.136 1.622-0.432 2.319-0.888 0.704-0.45 1.263-0.965 1.677-1.544zM45.588-7.307v0l0.514 4.592c0.363 2.85 0.875 4.758 1.535 5.722v0c0.397 0.581 0.831 1.013 1.304 1.296v0l1.236 0.76-6.924 0.881-1.097-2.673c-1.524 2.392-3.949 3.799-7.275 4.223v0c-1.891 0.241-3.5-0.2-4.825-1.321v0c-1.165-1.021-1.847-2.312-2.046-3.873-0.198-1.554-0.001-2.96 0.592-4.218 0.593-1.258 1.445-2.345 2.559-3.26v0c2.199-1.785 5.099-2.941 8.702-3.466v0l-0.033-0.258c-0.493-3.869-1.377-6.061-2.652-6.578v0c-0.46-0.183-1.028-0.232-1.702-0.146-0.681 0.087-1.328 0.394-1.939 0.922-0.612 0.528-1.144 1.177-1.597 1.947v0c-0.898 1.552-1.455 3.324-1.672 5.314v0c-1.523-0.666-2.436-2.193-2.74-4.581v0c-0.124-0.972-0.137-2.079-0.04-3.321v0c0.602-0.077 1.163-0.235 1.683-0.477v0l1.772-0.81c1.728-0.785 3.452-1.286 5.171-1.505 1.719-0.219 3.124-0.139 4.214 0.24 1.09 0.379 1.986 1.034 2.69 1.966v0c1.182 1.577 2.038 4.452 2.57 8.624zM33.231 2.129c0.125 0.985 0.451 1.72 0.976 2.205 0.518 0.478 1.121 0.674 1.808 0.586 0.681-0.087 1.316-0.349 1.906-0.787 0.596-0.439 1.109-1.001 1.539-1.688v0c1.01-1.567 1.394-3.306 1.151-5.217v0l-0.45-3.531c-2.203 0.489-3.947 1.463-5.232 2.924v0c-1.4 1.569-1.966 3.405-1.698 5.508zM57.12-29.699v0c-0.21 1.267-0.232 2.756-0.064 4.468 0.169 1.718 0.313 2.813 0.433 3.283 0.114 0.478 0.268 0.851 0.462 1.12v0c0.346 0.448 0.959 0.629 1.842 0.543v0l6.419-0.631c0.088 0.896-0.06 1.604-0.444 2.123v0c-0.698 0.939-1.614 1.465-2.749 1.577v0c-0.557 0.055-1.059 0.024-1.507-0.093v0c-0.814-0.242-1.437-0.341-1.868-0.299-0.431 0.042-0.775 0.16-1.03 0.352-0.256 0.193-0.448 0.456-0.576 0.79v0c-0.229 0.605-0.248 1.873-0.058 3.804 0.19 1.937 0.445 3.912 0.763 5.924 0.319 2.018 0.784 3.688 1.397 5.008 0.612 1.32 1.439 2.273 2.481 2.861 1.043 0.594 2.417 0.807 4.123 0.639v0c0.048 0.491-0.229 1.114-0.831 1.871v0c-0.154 0.209-0.294 0.35-0.421 0.423v0c-2.826 0.278-4.972 0.15-6.438-0.382v0c-1.69-0.638-2.981-1.944-3.872-3.92v0c-0.887-2.01-1.531-5.051-1.932-9.125v0c-0.35-3.563-0.653-5.657-0.909-6.281-0.256-0.631-0.474-1.042-0.653-1.232v0c-0.216-0.22-0.709-0.47-1.481-0.749v0c0.915-0.847 1.76-2.34 2.534-4.479v0l0.947-2.636c0.661-2.001 1.262-3.313 1.804-3.935 0.548-0.63 1.09-0.971 1.628-1.024zM76.042-28.17c-0.291 0.551-0.654 1.025-1.091 1.421-0.43 0.395-0.941 0.616-1.532 0.664-0.598 0.048-1.141-0.09-1.628-0.413-0.494-0.322-0.921-0.733-1.281-1.232v0c-0.745-1.038-1.165-2.164-1.262-3.381v0c-0.117-1.469 0.476-2.506 1.779-3.11v0c0.464-0.217 1.042-0.354 1.733-0.409v0c1.901-0.151 3.137 0.429 3.71 1.742v0c0.176 0.367 0.283 0.787 0.32 1.258 0.037 0.472-0.009 1.027-0.138 1.666-0.123 0.638-0.326 1.236-0.61 1.794zM79.039 2.469l-7.078 0.563c0.537-2.584 0.561-6.956 0.071-13.117v0c-0.344-4.333-0.967-7.286-1.868-8.86v0c-0.225-0.397-0.472-0.762-0.739-1.095v0l-0.875-1.044 8.513-0.676c-0.495 2.694-0.524 6.79-0.087 12.285 0.437 5.496 1.124 9.477 2.063 11.944zM118.139-13.538v0l-0.212-6.596c-0.026-0.893-0.187-1.499-0.483-1.817v0c-0.55-0.578-1.539-0.846-2.965-0.804v0l-3.798 0.11c-1.992 0.058-3.069 0.653-3.23 1.785v0c-0.037 0.321-0.051 0.665-0.04 1.032v0l0.19 7.217c0.181 6.224 0.614 10.113 1.3 11.667v0c0.278 0.606 0.697 1.26 1.258 1.964v0l-9.016 0.263c0.478-1.234 0.748-2.263 0.81-3.085 0.063-0.816 0.127-1.828 0.192-3.037v0c0.1-2.524 0.103-5.405 0.009-8.644-0.094-3.239-0.166-5.471-0.215-6.696-0.056-1.226-0.107-2.425-0.155-3.597v0c-0.255-4.855-0.493-7.766-0.714-8.733-0.222-0.967-0.4-1.616-0.537-1.946v0l-0.461-1.077 9.016-0.262c-1.115 1.32-1.705 3.071-1.768 5.254v0c-0.027 0.661-0.031 1.351-0.01 2.071 0.021 0.726 0.104 1.291 0.249 1.693 0.152 0.402 0.39 0.696 0.716 0.88v0c0.442 0.281 1.462 0.398 3.062 0.351v0l2.289-0.067c1.639-0.048 2.645-0.197 3.018-0.448v0c0.634-0.439 0.931-1.354 0.891-2.747v0c-0.099-3.419-0.846-5.808-2.24-7.168v0l9.026-0.262c-0.449 1.074-0.714 2.062-0.794 2.964-0.074 0.903-0.125 1.768-0.154 2.596-0.023 0.828-0.041 1.785-0.057 2.873-0.015 1.094-0.022 2.228-0.021 3.402v0c0.033 2.727 0.081 5.197 0.146 7.409v0c0.262 8.996 0.759 14.497 1.49 16.503v0c0.123 0.33 0.277 0.686 0.461 1.067v0l-9.026 0.263c0.775-1.096 1.238-2.037 1.389-2.822 0.157-0.785 0.267-1.708 0.329-2.77v0c0.147-2.038 0.166-4.967 0.055-8.786zM148.362-12.055v0l-0.11 4.619c-0.025 2.873 0.225 4.832 0.749 5.877v0c0.315 0.629 0.687 1.116 1.117 1.46v0l1.122 0.92-6.98-0.061-0.725-2.797c-1.832 2.164-4.425 3.232-7.778 3.203v0c-1.907-0.017-3.441-0.67-4.604-1.96v0c-1.017-1.169-1.518-2.54-1.504-4.114 0.014-1.567 0.399-2.933 1.156-4.1 0.757-1.167 1.749-2.128 2.975-2.884v0c2.42-1.472 5.45-2.226 9.09-2.261v0l0.002-0.26c0.034-3.9-0.546-6.192-1.74-6.875v0c-0.431-0.244-0.987-0.369-1.667-0.375-0.687-0.006-1.369 0.211-2.045 0.652-0.677 0.441-1.292 1.012-1.845 1.714v0c-1.099 1.417-1.89 3.097-2.374 5.04v0c-1.419-0.866-2.118-2.502-2.098-4.908v0c0.009-0.98 0.145-2.079 0.409-3.297v0c0.607 0.005 1.184-0.076 1.732-0.245v0l1.865-0.564c1.818-0.544 3.594-0.809 5.327-0.793 1.733 0.015 3.114 0.284 4.144 0.806 1.029 0.522 1.829 1.293 2.399 2.311v0c0.958 1.722 1.419 4.686 1.383 8.892zM134.845-4.372c-0.009 0.993 0.215 1.765 0.67 2.316 0.449 0.544 1.02 0.819 1.712 0.825 0.687 0.006 1.352-0.168 1.995-0.523 0.65-0.354 1.234-0.843 1.753-1.465v0c1.212-1.416 1.827-3.088 1.844-5.014v0l0.031-3.56c-2.248 0.187-4.108 0.918-5.58 2.192v0c-1.599 1.366-2.407 3.109-2.425 5.229zM162.141 1.26l-7.095-0.271c0.829-2.503 1.362-6.843 1.598-13.018v0c0.168-4.39-0.071-7.401-0.716-9.034v0c-0.261-0.67-0.746-1.436-1.453-2.297v0l8.544 0.326c-0.332 1.001-0.618 2.378-0.858 4.13v0c1.578-1.834 3.731-3.093 6.458-3.776v0c1.165-0.289 2.025-0.783 2.579-1.483v0c0.485 1.286 0.709 2.385 0.675 3.299-0.035 0.913-0.117 1.757-0.247 2.532-0.123 0.776-0.295 1.527-0.517 2.252v0c-0.48 1.576-1.081 2.791-1.8 3.644v0c-0.474-3.147-1.326-5.011-2.558-5.592v0c-1.422-0.681-2.866 0.114-4.335 2.387v0c-0.305 0.475-0.564 0.979-0.778 1.511v0c-0.028 0.373-0.049 0.752-0.063 1.138-0.015 0.38-0.029 0.763-0.044 1.149v0c-0.236 6.176-0.032 10.543 0.61 13.103zM183.395-28.486c-0.364 0.506-0.789 0.925-1.276 1.257-0.48 0.332-1.017 0.481-1.609 0.447-0.599-0.035-1.117-0.246-1.555-0.632-0.445-0.387-0.811-0.852-1.1-1.397v0c-0.595-1.13-0.856-2.304-0.785-3.522v0c0.086-1.471 0.816-2.416 2.19-2.837v0c0.49-0.152 1.081-0.207 1.773-0.166v0c1.903 0.112 3.048 0.857 3.435 2.235v0c0.124 0.388 0.172 0.818 0.144 1.291-0.028 0.473-0.15 1.016-0.366 1.631-0.21 0.615-0.493 1.18-0.851 1.693zM182.15 2.274l-7.088-0.416c0.887-2.486 1.512-6.813 1.874-12.983v0c0.255-4.339 0.044-7.35-0.631-9.032v0c-0.169-0.424-0.363-0.819-0.582-1.186v0l-0.723-1.155 8.525 0.501c-0.861 2.601-1.453 6.653-1.776 12.157-0.323 5.504-0.19 9.542 0.401 12.114zM197.821-30.519v0c-0.434 1.208-0.722 2.67-0.863 4.384-0.142 1.721-0.196 2.823-0.163 3.308 0.026 0.49 0.111 0.885 0.254 1.185v0c0.26 0.503 0.831 0.791 1.715 0.864v0l6.428 0.529c-0.074 0.897-0.347 1.567-0.818 2.01v0c-0.855 0.799-1.851 1.152-2.987 1.058v0c-0.558-0.046-1.047-0.167-1.465-0.361v0c-0.758-0.384-1.353-0.593-1.785-0.629-0.432-0.036-0.791 0.018-1.076 0.162-0.286 0.144-0.522 0.368-0.708 0.674v0c-0.333 0.554-0.58 1.798-0.739 3.732-0.16 1.94-0.264 3.928-0.311 5.965-0.048 2.043 0.111 3.768 0.476 5.176 0.366 1.408 1.008 2.495 1.929 3.26 0.92 0.771 2.233 1.228 3.941 1.368v0c-0.041 0.492-0.425 1.055-1.153 1.691v0c-0.189 0.178-0.352 0.292-0.49 0.341v0c-2.83-0.233-4.919-0.743-6.265-1.53v0c-1.549-0.93-2.584-2.447-3.107-4.55v0c-0.513-2.136-0.601-5.244-0.265-9.324v0c0.294-3.568 0.371-5.682 0.232-6.342-0.139-0.667-0.28-1.11-0.422-1.329v0c-0.173-0.255-0.614-0.589-1.323-1.002v0c1.052-0.669 2.15-1.987 3.296-3.953v0l1.404-2.423c1.009-1.85 1.835-3.033 2.48-3.548 0.652-0.522 1.247-0.76 1.785-0.716zM224.572-6.579v0l-0.573 4.585c-0.313 2.856-0.261 4.83 0.156 5.922v0c0.25 0.658 0.572 1.179 0.965 1.565v0l1.024 1.028-6.938-0.761-0.442-2.855c-2.04 1.969-4.727 2.771-8.06 2.406v0c-1.895-0.208-3.356-1.012-4.383-2.412v0c-0.894-1.265-1.256-2.679-1.084-4.243 0.171-1.557 0.691-2.878 1.561-3.964 0.87-1.085 1.953-1.942 3.25-2.571v0c2.555-1.222 5.645-1.668 9.27-1.338v0l0.029-0.258c0.425-3.877 0.078-6.215-1.042-7.016v0c-0.405-0.286-0.945-0.466-1.621-0.539-0.683-0.075-1.383 0.073-2.101 0.443-0.718 0.371-1.387 0.877-2.007 1.521v0c-1.236 1.3-2.191 2.892-2.868 4.776v0c-1.325-1.004-1.857-2.702-1.594-5.094v0c0.107-0.974 0.353-2.054 0.737-3.239v0c0.603 0.066 1.186 0.043 1.748-0.07v0l1.912-0.374c1.864-0.359 3.657-0.444 5.38-0.255 1.723 0.189 3.07 0.595 4.042 1.217 0.971 0.623 1.69 1.47 2.156 2.54v0c0.781 1.809 0.942 4.805 0.483 8.986zM210.352-0.291c-0.108 0.987 0.036 1.778 0.435 2.372 0.392 0.586 0.932 0.917 1.621 0.992 0.683 0.075 1.362-0.032 2.037-0.32 0.682-0.287 1.312-0.715 1.891-1.281v0c1.348-1.287 2.127-2.889 2.337-4.804v0l0.388-3.539c-2.256-0.039-4.179 0.501-5.771 1.621v0c-1.728 1.199-2.707 2.852-2.938 4.959zM247.862-16.403v0c0.296 1.011 0.377 2.001 0.241 2.972-0.136 0.971-0.29 1.767-0.465 2.389-0.175 0.628-0.393 1.224-0.653 1.787v0c-0.582 1.278-1.29 2.223-2.122 2.833v0c-0.145-2.531-0.456-4.204-0.935-5.017-0.48-0.807-0.992-1.38-1.537-1.719-0.546-0.332-1.143-0.543-1.79-0.634-0.654-0.091-1.197-0.103-1.631-0.036-0.427 0.068-0.809 0.2-1.145 0.396v0c-0.754 0.433-1.177 0.983-1.271 1.65-0.093 0.667-0.008 1.264 0.255 1.792 0.269 0.536 0.648 1.05 1.137 1.542 0.489 0.499 1.056 0.996 1.701 1.49v0l1.969 1.517c1.704 1.295 2.849 2.33 3.434 3.104v0c1.165 1.543 1.643 3.06 1.434 4.552v0c-0.273 1.954-1.173 3.505-2.699 4.652v0c-1.923 1.482-4.569 1.987-7.936 1.517v0c-3.064-0.428-5.268-1.463-6.615-3.105v0c-0.384-0.478-0.643-0.938-0.776-1.38v0c0.291-1.171 0.979-2.216 2.063-3.135v0c1.047-0.89 2.01-1.355 2.891-1.394v0c-0.088 0.196-0.161 0.503-0.219 0.919-0.057 0.409-0.01 0.938 0.142 1.585 0.152 0.647 0.413 1.263 0.782 1.846v0c0.835 1.348 1.88 2.11 3.134 2.285 1.254 0.175 2.216 0.017 2.883-0.476 0.667-0.486 1.052-1.095 1.154-1.828 0.102-0.733 0.023-1.367-0.239-1.901-0.268-0.542-0.645-1.066-1.133-1.572-0.488-0.506-1.054-1.005-1.699-1.499v0l-1.97-1.517c-1.678-1.338-2.807-2.435-3.387-3.29v0c-1.154-1.716-1.605-3.472-1.355-5.268v0c0.265-1.895 1.275-3.319 3.03-4.272v0c1.667-0.898 3.626-1.19 5.878-0.876v0l4.159 0.874c1.017 0.142 1.741 0.115 2.172-0.081 0.43-0.189 0.803-0.423 1.118-0.702zM254.052-13.992l8.429 1.373c-1.102 2.374-2.101 6.311-2.997 11.812-0.896 5.508-1.183 9.571-0.86 12.19v0l-7.008-1.141c1.137-2.382 2.2-6.606 3.188-12.672v0c0.704-4.323 0.806-7.356 0.306-9.1v0c-0.124-0.439-0.277-0.852-0.457-1.239v0z" opacity="1" transform="matrix(1,0,0,1,0,0)" fill="#ffffff" class="wordmark-text-0" data-fill-palette-color="primary" id="text-0"></path></svg></g></svg></g><g transform="matrix(1,0,0,1,118.319808,77.17316547277387)"><svg viewBox="0 0 158.88038400000005 6.766529094867809" height="6.766529094867809" width="158.88038400000005"><g transform="matrix(1,0,0,1,0,0)"><svg width="158.88038400000005" viewBox="4.64 -39.84 1224.34 52.14" height="6.766529094867809" data-palette-color="#8789fe"><path d="M27.15-31.54L10.6-31.54 10.6-20.21 25.63-20.21 25.63-16.21 10.6-16.21 10.6-4.44 27.15-4.44 27.15 0 4.64 0 4.64-35.99 27.15-35.99 27.15-31.54ZM50.88 0.2L43.21 0.2 33.54-27.54 40.23-27.54 47.07-4.59 53.9-27.54 60.54-27.54 50.88 0.2ZM85.83-7.03L88.03-3.86Q86.37-1.76 84.42-0.76 82.47 0.24 79.44 0.24L79.44 0.24Q76.56 0.24 74.21-0.85 71.87-1.95 70.21-3.83 68.55-5.71 67.7-8.25 66.84-10.79 66.84-13.77L66.84-13.77Q66.84-16.7 67.77-19.24 68.7-21.78 70.36-23.66 72.02-25.54 74.36-26.61 76.7-27.69 79.58-27.69L79.58-27.69Q82.61-27.69 84.76-26.68 86.91-25.68 88.57-23.58L88.57-23.58 85.93-20.41Q85.1-21.39 83.64-22.19 82.17-23 79.63-23L79.63-23Q78.17-23 76.95-22.31 75.73-21.63 74.87-20.41 74.02-19.19 73.55-17.53 73.09-15.87 73.09-13.92L73.09-13.92Q73.09-11.96 73.51-10.28 73.92-8.59 74.75-7.32 75.58-6.05 76.73-5.32 77.88-4.59 79.39-4.59L79.39-4.59Q81.59-4.59 83.08-5.3 84.57-6.01 85.83-7.03L85.83-7.03ZM102.09-27.54L102.09 0 96.14 0 96.14-27.54 102.09-27.54ZM102.63-36.33L102.63-36.33Q102.63-34.86 101.6-33.86 100.58-32.86 99.11-32.86L99.11-32.86Q97.65-32.86 96.65-33.89 95.65-34.91 95.65-36.33L95.65-36.33Q95.65-37.79 96.67-38.82 97.7-39.84 99.11-39.84L99.11-39.84Q100.58-39.84 101.6-38.82 102.63-37.79 102.63-36.33ZM116.25-37.94L116.25-8.4Q116.25-6.74 116.69-5.79 117.13-4.83 117.91-4.37 118.69-3.91 119.69-3.76 120.69-3.61 121.87-3.61L121.87-3.61 121.87 0Q121.23 0.1 120.55 0.15L120.55 0.15Q120.01 0.2 119.28 0.22 118.54 0.24 117.81 0.24L117.81 0.24Q117.08 0.24 116.35 0.2 115.62 0.15 115.03 0.05L115.03 0.05Q113.37-0.29 112.44-1.42 111.51-2.54 111.03-3.93 110.54-5.32 110.41-6.64 110.29-7.96 110.29-8.69L110.29-8.69 110.29-9.28 110.29-37.94 116.25-37.94ZM163.41-35.99L169.27-35.99 169.27 0 163.41 0 163.41-16.21 147.84-16.21 147.84 0 141.88 0 141.88-35.99 147.84-35.99 147.84-20.21 163.41-20.21 163.41-35.99ZM197.79-14.89L197.79-8.54 197.79-8.15Q197.79-7.76 197.83-7.01 197.88-6.25 198.03-5.47 198.18-4.69 198.49-4.05 198.81-3.42 199.35-3.22L199.35-3.22 197.79 0.05Q197.15 0.05 196.44-0.24 195.73-0.54 195.08-1.07 194.42-1.61 193.95-2.27 193.49-2.93 193.24-3.71L193.24-3.71Q192.9-2.88 192.05-2.17 191.19-1.46 190.12-0.9 189.05-0.34 187.8-0.05 186.55 0.24 185.48 0.24L185.48 0.24Q183.82 0.24 182.28-0.2 180.74-0.63 179.57-1.61 178.4-2.59 177.74-4.2 177.08-5.81 177.08-8.15L177.08-8.15Q177.08-10.4 178.03-12.04 178.99-13.67 180.48-14.72 181.96-15.77 183.87-16.28 185.77-16.8 187.73-16.8L187.73-16.8 191.88-16.8Q191.88-19.19 191.63-20.61 191.39-22.02 190.8-22.68 190.22-23.34 189.36-23.51 188.51-23.68 187.34-23.68L187.34-23.68Q186.26-23.68 185.31-23.41 184.36-23.14 183.55-22.78 182.75-22.41 182.14-21.97 181.53-21.53 181.23-21.29L181.23-21.29 179.04-24.66Q179.52-25.2 180.5-25.76 181.48-26.32 182.75-26.76 184.02-27.2 185.5-27.47 186.99-27.73 188.61-27.73L188.61-27.73Q190.07-27.73 191.46-27.44 192.85-27.15 194-26.46 195.15-25.78 196-24.63 196.86-23.49 197.2-21.78L197.2-21.78Q197.54-20.07 197.66-18.33 197.79-16.6 197.79-14.89L197.79-14.89ZM191.93-6.59L191.93-13.33 188.8-13.33Q187.82-13.33 186.75-13.13 185.68-12.94 184.75-12.4 183.82-11.87 183.21-10.86 182.6-9.86 182.6-8.3L182.6-8.3Q182.6-5.86 183.7-4.79 184.8-3.71 186.9-3.71L186.9-3.71Q188.36-3.71 189.7-4.49 191.05-5.27 191.93-6.59L191.93-6.59ZM227.71-27.54L233.67-27.54Q230.99-20.36 228.89-14.82 226.79-9.28 225.22-5.1 223.66-0.93 222.47 1.95 221.27 4.83 220.27 6.76 219.27 8.69 218.39 9.79 217.51 10.89 216.58 11.47 215.65 12.06 214.56 12.18 213.46 12.3 212.04 12.3L212.04 12.3Q211.6 12.3 211.02 12.18 210.43 12.06 209.87 11.89 209.31 11.72 208.87 11.55 208.43 11.38 208.28 11.33L208.28 11.33Q208.48 10.45 208.67 9.67L208.67 9.67Q208.82 8.98 208.99 8.37 209.16 7.76 209.26 7.52L209.26 7.52Q209.65 7.52 210.45 7.76 211.26 8.01 211.65 8.01L211.65 8.01Q212.43 8.01 213.04 7.93 213.65 7.86 214.14 7.5 214.63 7.13 215.07 6.42 215.51 5.71 216.04 4.39L216.04 4.39 217.9 0 206.62-27.54 212.53-27.54 220.59-6.35 227.71-27.54ZM255.93 0.2L248.27 0.2 238.6-27.54 245.29-27.54 252.13-4.59 258.96-27.54 265.6-27.54 255.93 0.2ZM291.92-14.89L291.92-8.54 291.92-8.15Q291.92-7.76 291.97-7.01 292.02-6.25 292.16-5.47 292.31-4.69 292.63-4.05 292.94-3.42 293.48-3.22L293.48-3.22 291.92 0.05Q291.28 0.05 290.58-0.24 289.87-0.54 289.21-1.07 288.55-1.61 288.09-2.27 287.62-2.93 287.38-3.71L287.38-3.71Q287.04-2.88 286.18-2.17 285.33-1.46 284.25-0.9 283.18-0.34 281.93-0.05 280.69 0.24 279.61 0.24L279.61 0.24Q277.95 0.24 276.42-0.2 274.88-0.63 273.71-1.61 272.53-2.59 271.87-4.2 271.22-5.81 271.22-8.15L271.22-8.15Q271.22-10.4 272.17-12.04 273.12-13.67 274.61-14.72 276.1-15.77 278-16.28 279.91-16.8 281.86-16.8L281.86-16.8 286.01-16.8Q286.01-19.19 285.77-20.61 285.52-22.02 284.94-22.68 284.35-23.34 283.5-23.51 282.64-23.68 281.47-23.68L281.47-23.68Q280.39-23.68 279.44-23.41 278.49-23.14 277.68-22.78 276.88-22.41 276.27-21.97 275.66-21.53 275.37-21.29L275.37-21.29 273.17-24.66Q273.66-25.2 274.63-25.76 275.61-26.32 276.88-26.76 278.15-27.2 279.64-27.47 281.13-27.73 282.74-27.73L282.74-27.73Q284.2-27.73 285.6-27.44 286.99-27.15 288.13-26.46 289.28-25.78 290.14-24.63 290.99-23.49 291.33-21.78L291.33-21.78Q291.67-20.07 291.8-18.33 291.92-16.6 291.92-14.89L291.92-14.89ZM286.06-6.59L286.06-13.33 282.93-13.33Q281.96-13.33 280.88-13.13 279.81-12.94 278.88-12.4 277.95-11.87 277.34-10.86 276.73-9.86 276.73-8.3L276.73-8.3Q276.73-5.86 277.83-4.79 278.93-3.71 281.03-3.71L281.03-3.71Q282.49-3.71 283.84-4.49 285.18-5.27 286.06-6.59L286.06-6.59ZM324.04-0.98L324.04 0 318.09 0 318.09-14.99Q318.09-16.65 317.94-18.16 317.79-19.68 317.26-20.85 316.72-22.02 315.79-22.68 314.87-23.34 313.2-23.34L313.2-23.34Q312.67-23.34 311.81-23.19 310.96-23.05 310.06-22.75 309.15-22.46 308.35-22.02 307.54-21.58 307.15-21L307.15-21 307.15-20.7 307.15-20.61 307.15-9.77 307.15-9.67 307.15 0 301.24 0 301.24-27.54 306.52-27.54 307.15-24.76Q307.74-25.29 308.64-25.85 309.54-26.42 310.62-26.86 311.69-27.29 312.81-27.56 313.94-27.83 315.01-27.83L315.01-27.83Q317.21-27.83 318.72-26.9 320.24-25.98 321.75-24.51L321.75-24.51Q322.58-23.68 323.04-22.58 323.51-21.48 323.73-20.29 323.95-19.09 324-17.87 324.04-16.65 324.04-15.48L324.04-15.48 324.04-0.98ZM338.1-27.54L338.1 0 332.15 0 332.15-27.54 338.1-27.54ZM369.21-0.98L369.21 0 363.25 0 363.25-14.99Q363.25-16.65 363.1-18.16 362.96-19.68 362.42-20.85 361.88-22.02 360.95-22.68 360.03-23.34 358.37-23.34L358.37-23.34Q357.83-23.34 356.97-23.19 356.12-23.05 355.22-22.75 354.31-22.46 353.51-22.02 352.7-21.58 352.31-21L352.31-21 352.31-20.7 352.31-20.61 352.31-9.77 352.31-9.67 352.31 0 346.4 0 346.4-27.54 351.68-27.54 352.31-24.76Q352.9-25.29 353.8-25.85 354.7-26.42 355.78-26.86 356.85-27.29 357.98-27.56 359.1-27.83 360.17-27.83L360.17-27.83Q362.37-27.83 363.88-26.9 365.4-25.98 366.91-24.51L366.91-24.51Q367.74-23.68 368.2-22.58 368.67-21.48 368.89-20.29 369.11-19.09 369.16-17.87 369.21-16.65 369.21-15.48L369.21-15.48 369.21-0.98ZM383.27-27.54L383.27 0 377.31 0 377.31-27.54 383.27-27.54ZM422.42-18.95L422.42-18.95Q423.54-18.8 424.81-18.21 426.08-17.63 427.18-16.55 428.28-15.48 429.01-13.94 429.75-12.4 429.75-10.4L429.75-10.4Q429.75-7.96 429.01-6.2 428.28-4.44 427.18-3.3 426.08-2.15 424.79-1.49 423.5-0.83 422.3-0.49 421.1-0.15 420.17-0.07 419.25 0 418.95 0L418.95 0 405.43 0 405.43-35.99 415.78-35.99Q418.08-35.99 420.22-35.45 422.37-34.91 424.03-33.74 425.69-32.57 426.67-30.69 427.65-28.81 427.65-26.22L427.65-26.22Q427.65-24.71 427.16-23.46 426.67-22.22 425.94-21.29 425.2-20.36 424.25-19.75 423.3-19.14 422.42-18.95ZM411.29-4.3L418.61-4.3Q421.2-4.3 422.67-5.96 424.13-7.62 424.13-10.4L424.13-10.4Q424.13-13.04 422.62-14.84 421.1-16.65 418.17-16.65L418.17-16.65 411.29-16.65 411.29-4.3ZM411.53-20.61L415.63-20.61Q416.71-20.61 417.83-20.65 418.95-20.7 419.93-21.19 420.91-21.68 421.52-22.85 422.13-24.02 422.13-26.22L422.13-26.22Q422.13-27.1 421.88-28.05 421.64-29 420.91-29.79 420.17-30.57 418.81-31.05 417.44-31.54 415.19-31.54L415.19-31.54 411.29-31.54 411.29-20.61 411.53-20.61ZM437.51-26.61L437.51-26.56 437.51-27.54 443.46-27.54 443.46-12.55Q443.46-10.84 443.61-9.35 443.76-7.86 444.24-6.74 444.73-5.62 445.71-4.93 446.69-4.25 448.3-4.25L448.3-4.25Q448.79-4.25 449.66-4.37 450.54-4.49 451.45-4.79 452.35-5.08 453.16-5.52 453.96-5.96 454.35-6.54L454.35-6.54 454.35-6.88 454.35-6.93 454.35-17.87 454.35-17.92 454.35-27.54 460.31-27.54 460.31 0 454.99 0 454.35-2.83Q453.77-2.29 452.89-1.76 452.01-1.22 450.96-0.76 449.91-0.29 448.81-0.02 447.71 0.24 446.64 0.24L446.64 0.24Q445.47 0.24 444.54 0.02 443.61-0.2 442.8-0.66 442-1.12 441.27-1.71 440.53-2.29 439.8-3.03L439.8-3.03Q438.97-3.86 438.48-4.96 437.99-6.05 437.77-7.25 437.56-8.45 437.53-9.67 437.51-10.89 437.51-12.06L437.51-12.06 437.51-26.61ZM474.47-37.94L474.47-8.4Q474.47-6.74 474.91-5.79 475.35-4.83 476.13-4.37 476.91-3.91 477.91-3.76 478.91-3.61 480.08-3.61L480.08-3.61 480.08 0Q479.45 0.1 478.76 0.15L478.76 0.15Q478.23 0.2 477.49 0.22 476.76 0.24 476.03 0.24L476.03 0.24Q475.3 0.24 474.56 0.2 473.83 0.15 473.25 0.05L473.25 0.05Q471.59-0.29 470.66-1.42 469.73-2.54 469.24-3.93 468.75-5.32 468.63-6.64 468.51-7.96 468.51-8.69L468.51-8.69 468.51-9.28 468.51-37.94 474.47-37.94ZM488.77-6.79L488.77-6.79Q490.24-6.79 491.26-5.76 492.29-4.74 492.29-3.32L492.29-3.32Q492.29-3.08 492.24-2.17 492.19-1.27 491.77 0.02 491.36 1.32 490.43 2.83 489.5 4.35 487.7 5.86L487.7 5.86 485.4 5.86Q486.38 4.93 487.01 3.91 487.65 2.88 488.04 2.05L488.04 2.05Q488.48 1.12 488.77 0.2L488.77 0.2Q487.31 0.2 486.31-0.83 485.3-1.86 485.3-3.32L485.3-3.32Q485.3-4.79 486.31-5.79 487.31-6.79 488.77-6.79ZM533.54-9.86L533.54-9.86Q533.54-7.91 532.74-6.08 531.93-4.25 530.47-2.86 529-1.46 526.85-0.63 524.7 0.2 521.97 0.2L521.97 0.2Q520.8 0.2 519.55 0.07 518.31-0.05 517.04-0.34 515.77-0.63 514.62-1.15 513.47-1.66 512.64-2.39L512.64-2.39 513.67-6.59Q514.35-6.2 515.4-5.83 516.45-5.47 517.57-5.15 518.7-4.83 519.82-4.64 520.94-4.44 521.92-4.44L521.92-4.44Q524.9-4.44 526.49-5.83 528.07-7.23 528.07-9.96L528.07-9.96Q528.07-11.62 526.95-12.79 525.83-13.96 524.14-14.92 522.46-15.87 520.5-16.82 518.55-17.77 516.84-19.07 515.13-20.36 514.01-22.12 512.89-23.88 512.89-26.51L512.89-26.51Q512.89-28.91 513.77-30.76 514.64-32.62 516.13-33.91 517.62-35.21 519.6-35.89 521.58-36.57 523.78-36.57L523.78-36.57Q526.02-36.57 528.32-36.16 530.61-35.74 532.03-34.81L532.03-34.81Q531.73-34.18 531.34-33.42 530.95-32.67 530.61-32.01 530.27-31.35 530.03-30.91 529.78-30.47 529.73-30.42L529.73-30.42Q529.44-30.57 529.07-30.81 528.71-31.05 528.02-31.3 527.34-31.54 526.22-31.64 525.09-31.74 523.34-31.59L523.34-31.59Q522.36-31.49 521.48-31.03 520.6-30.57 519.92-29.88 519.23-29.2 518.84-28.34 518.45-27.49 518.45-26.71L518.45-26.71Q518.45-24.76 519.58-23.56 520.7-22.36 522.36-21.46 524.02-20.56 525.97-19.7 527.93-18.85 529.61-17.63 531.3-16.41 532.42-14.58 533.54-12.74 533.54-9.86ZM559.32-14.89L559.32-8.54 559.32-8.15Q559.32-7.76 559.37-7.01 559.42-6.25 559.56-5.47 559.71-4.69 560.03-4.05 560.35-3.42 560.88-3.22L560.88-3.22 559.32 0.05Q558.69 0.05 557.98-0.24 557.27-0.54 556.61-1.07 555.95-1.61 555.49-2.27 555.02-2.93 554.78-3.71L554.78-3.71Q554.44-2.88 553.58-2.17 552.73-1.46 551.65-0.9 550.58-0.34 549.33-0.05 548.09 0.24 547.02 0.24L547.02 0.24Q545.36 0.24 543.82-0.2 542.28-0.63 541.11-1.61 539.94-2.59 539.28-4.2 538.62-5.81 538.62-8.15L538.62-8.15Q538.62-10.4 539.57-12.04 540.52-13.67 542.01-14.72 543.5-15.77 545.4-16.28 547.31-16.8 549.26-16.8L549.26-16.8 553.41-16.8Q553.41-19.19 553.17-20.61 552.92-22.02 552.34-22.68 551.75-23.34 550.9-23.51 550.04-23.68 548.87-23.68L548.87-23.68Q547.8-23.68 546.84-23.41 545.89-23.14 545.09-22.78 544.28-22.41 543.67-21.97 543.06-21.53 542.77-21.29L542.77-21.29 540.57-24.66Q541.06-25.2 542.03-25.76 543.01-26.32 544.28-26.76 545.55-27.2 547.04-27.47 548.53-27.73 550.14-27.73L550.14-27.73Q551.61-27.73 553-27.44 554.39-27.15 555.54-26.46 556.68-25.78 557.54-24.63 558.39-23.49 558.73-21.78L558.73-21.78Q559.08-20.07 559.2-18.33 559.32-16.6 559.32-14.89L559.32-14.89ZM553.46-6.59L553.46-13.33 550.34-13.33Q549.36-13.33 548.28-13.13 547.21-12.94 546.28-12.4 545.36-11.87 544.74-10.86 544.13-9.86 544.13-8.3L544.13-8.3Q544.13-5.86 545.23-4.79 546.33-3.71 548.43-3.71L548.43-3.71Q549.9-3.71 551.24-4.49 552.58-5.27 553.46-6.59L553.46-6.59ZM591.45-0.98L591.45 0 585.49 0 585.49-14.99Q585.49-16.65 585.34-18.16 585.2-19.68 584.66-20.85 584.12-22.02 583.19-22.68 582.27-23.34 580.61-23.34L580.61-23.34Q580.07-23.34 579.21-23.19 578.36-23.05 577.46-22.75 576.55-22.46 575.75-22.02 574.94-21.58 574.55-21L574.55-21 574.55-20.7 574.55-20.61 574.55-9.77 574.55-9.67 574.55 0 568.64 0 568.64-37.94 574.55-37.94 574.55-24.76Q575.14-25.29 576.04-25.85 576.94-26.42 578.02-26.86 579.09-27.29 580.22-27.56 581.34-27.83 582.41-27.83L582.41-27.83Q584.61-27.83 586.12-26.9 587.64-25.98 589.15-24.51L589.15-24.51Q589.98-23.68 590.45-22.58 590.91-21.48 591.13-20.29 591.35-19.09 591.4-17.87 591.45-16.65 591.45-15.48L591.45-15.48 591.45-0.98ZM604.29-27.54L604.29 0 598.33 0 598.33-27.54 604.29-27.54ZM604.82-36.33L604.82-36.33Q604.82-34.86 603.8-33.86 602.77-32.86 601.31-32.86L601.31-32.86Q599.84-32.86 598.84-33.89 597.84-34.91 597.84-36.33L597.84-36.33Q597.84-37.79 598.87-38.82 599.89-39.84 601.31-39.84L601.31-39.84Q602.77-39.84 603.8-38.82 604.82-37.79 604.82-36.33ZM636.66-19.19L636.66-19.19Q637.24-16.94 637.24-14.16L637.24-14.16Q637.24-11.38 636.58-8.76 635.92-6.15 634.58-4.15 633.24-2.15 631.21-0.95 629.19 0.24 626.45 0.24L626.45 0.24Q624.99 0.24 623.62-0.05 622.25-0.34 621.18-0.85 620.1-1.37 619.4-1.98 618.69-2.59 618.54-3.27L618.54-3.27 618.54 10.84 612.58 10.84 612.58-27.54 617.91-27.54 618.54-24.76Q619.52-26.12 621.5-26.95 623.47-27.78 625.87-27.78L625.87-27.78Q627.48-27.78 629.14-27.34 630.8-26.9 632.24-25.88 633.68-24.85 634.85-23.19 636.02-21.53 636.66-19.19ZM624.5-4.35L624.5-4.35Q625.96-4.35 627.16-5.08 628.36-5.81 629.21-7.06 630.06-8.3 630.55-10.03 631.04-11.77 631.04-13.72L631.04-13.72Q631.04-15.63 630.6-17.33 630.16-19.04 629.36-20.36 628.55-21.68 627.4-22.46 626.26-23.24 624.74-23.24L624.74-23.24Q623.28-23.24 622.06-22.51 620.84-21.78 619.96-20.53 619.08-19.29 618.61-17.6 618.15-15.92 618.15-13.96L618.15-13.96Q618.15-12.01 618.57-10.28 618.98-8.54 619.81-7.23 620.64-5.91 621.81-5.13 622.98-4.35 624.5-4.35ZM643.29-2.2L643.29-2.2 645.78-6.15Q646.76-5.47 648.1-4.88 649.45-4.3 651.5-4.3L651.5-4.3Q654.18-4.3 655.7-5.13 657.21-5.96 657.21-7.57L657.21-7.57Q657.21-8.74 656.33-9.45 655.45-10.16 654.11-10.67 652.77-11.18 651.23-11.65 649.69-12.11 648.37-12.79L648.37-12.79Q645.78-14.16 644.49-15.67 643.2-17.19 643.2-19.68L643.2-19.68Q643.2-21.73 644.05-23.29 644.91-24.85 646.27-25.9 647.64-26.95 649.4-27.49 651.16-28.03 652.96-28.03L652.96-28.03Q655.4-28.03 657.45-27.51 659.51-27 661.41-25.78L661.41-25.78 659.51-21.73Q658.04-22.56 656.33-22.88 654.62-23.19 652.96-23.19L652.96-23.19Q651.16-23.19 650.11-22.39 649.06-21.58 649.06-19.87L649.06-19.87Q649.06-18.55 650.01-17.8 650.96-17.04 652.47-16.46 653.99-15.87 655.7-15.28 657.41-14.7 658.89-13.79 660.38-12.89 661.36-11.52 662.34-10.16 662.34-8.01L662.34-8.01Q662.34-5.91 661.51-4.35 660.68-2.78 659.26-1.76 657.85-0.73 655.99-0.24 654.13 0.24 652.03 0.24L652.03 0.24Q650.77 0.24 649.69 0.17 648.62 0.1 647.59-0.15 646.57-0.39 645.54-0.88 644.52-1.37 643.29-2.2ZM675.91-27.54L675.91 0 669.95 0 669.95-27.54 675.91-27.54ZM676.45-36.33L676.45-36.33Q676.45-34.86 675.42-33.86 674.4-32.86 672.93-32.86L672.93-32.86Q671.47-32.86 670.46-33.89 669.46-34.91 669.46-36.33L669.46-36.33Q669.46-37.79 670.49-38.82 671.51-39.84 672.93-39.84L672.93-39.84Q674.4-39.84 675.42-38.82 676.45-37.79 676.45-36.33ZM684.21-22.8L684.21-27.54 705.15-27.54 705.15-22.8 690.99-5.52 690.02-4.74 705.15-4.74 705.15 0 684.21 0 684.21-4.74 698.37-22.02 699.34-22.8 684.21-22.8ZM744.41-18.95L744.41-18.95Q745.53-18.8 746.8-18.21 748.07-17.63 749.17-16.55 750.27-15.48 751-13.94 751.73-12.4 751.73-10.4L751.73-10.4Q751.73-7.96 751-6.2 750.27-4.44 749.17-3.3 748.07-2.15 746.78-1.49 745.48-0.83 744.29-0.49 743.09-0.15 742.16-0.07 741.23 0 740.94 0L740.94 0 727.42 0 727.42-35.99 737.77-35.99Q740.06-35.99 742.21-35.45 744.36-34.91 746.02-33.74 747.68-32.57 748.66-30.69 749.63-28.81 749.63-26.22L749.63-26.22Q749.63-24.71 749.14-23.46 748.66-22.22 747.92-21.29 747.19-20.36 746.24-19.75 745.29-19.14 744.41-18.95ZM733.27-4.3L740.6-4.3Q743.19-4.3 744.65-5.96 746.12-7.62 746.12-10.4L746.12-10.4Q746.12-13.04 744.6-14.84 743.09-16.65 740.16-16.65L740.16-16.65 733.27-16.65 733.27-4.3ZM733.52-20.61L737.62-20.61Q738.69-20.61 739.82-20.65 740.94-20.7 741.92-21.19 742.89-21.68 743.5-22.85 744.11-24.02 744.11-26.22L744.11-26.22Q744.11-27.1 743.87-28.05 743.63-29 742.89-29.79 742.16-30.57 740.79-31.05 739.43-31.54 737.18-31.54L737.18-31.54 733.27-31.54 733.27-20.61 733.52-20.61ZM765.6-27.54L765.6 0 759.64 0 759.64-27.54 765.6-27.54ZM766.13-36.33L766.13-36.33Q766.13-34.86 765.11-33.86 764.08-32.86 762.62-32.86L762.62-32.86Q761.15-32.86 760.15-33.89 759.15-34.91 759.15-36.33L759.15-36.33Q759.15-37.79 760.18-38.82 761.2-39.84 762.62-39.84L762.62-39.84Q764.08-39.84 765.11-38.82 766.13-37.79 766.13-36.33ZM789.37-27.73L789.37-21.58Q788.01-21.97 786.05-22.02L786.05-22.02Q784.29-22.02 782.56-21.61 780.83-21.19 779.8-20.21L779.8-20.21 779.8-9.77 779.8-9.67 779.8 0 773.89 0 773.89-27.54 779.17-27.54 779.8-24.71Q780.54-25.44 781.34-26.03 782.15-26.61 783.22-26.98 784.29-27.34 785.76-27.54 787.22-27.73 789.37-27.73L789.37-27.73ZM830.97-35.99L836.83-35.99 836.83 0 830.97 0 830.97-16.21 815.39-16.21 815.39 0 809.44 0 809.44-35.99 815.39-35.99 815.39-20.21 830.97-20.21 830.97-35.99ZM865.34-14.89L865.34-8.54 865.34-8.15Q865.34-7.76 865.39-7.01 865.44-6.25 865.59-5.47 865.73-4.69 866.05-4.05 866.37-3.42 866.9-3.22L866.9-3.22 865.34 0.05Q864.71 0.05 864-0.24 863.29-0.54 862.63-1.07 861.97-1.61 861.51-2.27 861.05-2.93 860.8-3.71L860.8-3.71Q860.46-2.88 859.6-2.17 858.75-1.46 857.68-0.9 856.6-0.34 855.36-0.05 854.11 0.24 853.04 0.24L853.04 0.24Q851.38 0.24 849.84-0.2 848.3-0.63 847.13-1.61 845.96-2.59 845.3-4.2 844.64-5.81 844.64-8.15L844.64-8.15Q844.64-10.4 845.59-12.04 846.54-13.67 848.03-14.72 849.52-15.77 851.43-16.28 853.33-16.8 855.28-16.8L855.28-16.8 859.43-16.8Q859.43-19.19 859.19-20.61 858.95-22.02 858.36-22.68 857.77-23.34 856.92-23.51 856.06-23.68 854.89-23.68L854.89-23.68Q853.82-23.68 852.87-23.41 851.91-23.14 851.11-22.78 850.3-22.41 849.69-21.97 849.08-21.53 848.79-21.29L848.79-21.29 846.59-24.66Q847.08-25.2 848.06-25.76 849.03-26.32 850.3-26.76 851.57-27.2 853.06-27.47 854.55-27.73 856.16-27.73L856.16-27.73Q857.63-27.73 859.02-27.44 860.41-27.15 861.56-26.46 862.71-25.78 863.56-24.63 864.41-23.49 864.76-21.78L864.76-21.78Q865.1-20.07 865.22-18.33 865.34-16.6 865.34-14.89L865.34-14.89ZM859.48-6.59L859.48-13.33 856.36-13.33Q855.38-13.33 854.31-13.13 853.23-12.94 852.31-12.4 851.38-11.87 850.77-10.86 850.16-9.86 850.16-8.3L850.16-8.3Q850.16-5.86 851.26-4.79 852.35-3.71 854.45-3.71L854.45-3.71Q855.92-3.71 857.26-4.49 858.6-5.27 859.48-6.59L859.48-6.59ZM895.27-27.54L901.23-27.54Q898.54-20.36 896.44-14.82 894.34-9.28 892.78-5.1 891.22-0.93 890.02 1.95 888.83 4.83 887.83 6.76 886.82 8.69 885.95 9.79 885.07 10.89 884.14 11.47 883.21 12.06 882.11 12.18 881.01 12.3 879.6 12.3L879.6 12.3Q879.16 12.3 878.57 12.18 877.99 12.06 877.42 11.89 876.86 11.72 876.42 11.55 875.98 11.38 875.84 11.33L875.84 11.33Q876.03 10.45 876.23 9.67L876.23 9.67Q876.37 8.98 876.55 8.37 876.72 7.76 876.81 7.52L876.81 7.52Q877.2 7.52 878.01 7.76 878.82 8.01 879.21 8.01L879.21 8.01Q879.99 8.01 880.6 7.93 881.21 7.86 881.7 7.5 882.19 7.13 882.62 6.42 883.06 5.71 883.6 4.39L883.6 4.39 885.46 0 874.18-27.54 880.09-27.54 888.14-6.35 895.27-27.54ZM923.49 0.2L915.83 0.2 906.16-27.54 912.85-27.54 919.68-4.59 926.52-27.54 933.16-27.54 923.49 0.2ZM959.48-14.89L959.48-8.54 959.48-8.15Q959.48-7.76 959.52-7.01 959.57-6.25 959.72-5.47 959.87-4.69 960.18-4.05 960.5-3.42 961.04-3.22L961.04-3.22 959.48 0.05Q958.84 0.05 958.13-0.24 957.42-0.54 956.77-1.07 956.11-1.61 955.64-2.27 955.18-2.93 954.93-3.71L954.93-3.71Q954.59-2.88 953.74-2.17 952.88-1.46 951.81-0.9 950.74-0.34 949.49-0.05 948.24 0.24 947.17 0.24L947.17 0.24Q945.51 0.24 943.97-0.2 942.43-0.63 941.26-1.61 940.09-2.59 939.43-4.2 938.77-5.81 938.77-8.15L938.77-8.15Q938.77-10.4 939.72-12.04 940.68-13.67 942.17-14.72 943.65-15.77 945.56-16.28 947.46-16.8 949.42-16.8L949.42-16.8 953.57-16.8Q953.57-19.19 953.32-20.61 953.08-22.02 952.49-22.68 951.91-23.34 951.05-23.51 950.2-23.68 949.03-23.68L949.03-23.68Q947.95-23.68 947-23.41 946.05-23.14 945.24-22.78 944.44-22.41 943.83-21.97 943.22-21.53 942.92-21.29L942.92-21.29 940.73-24.66Q941.21-25.2 942.19-25.76 943.17-26.32 944.44-26.76 945.71-27.2 947.2-27.47 948.68-27.73 950.3-27.73L950.3-27.73Q951.76-27.73 953.15-27.44 954.54-27.15 955.69-26.46 956.84-25.78 957.69-24.63 958.55-23.49 958.89-21.78L958.89-21.78Q959.23-20.07 959.35-18.33 959.48-16.6 959.48-14.89L959.48-14.89ZM953.62-6.59L953.62-13.33 950.49-13.33Q949.51-13.33 948.44-13.13 947.37-12.94 946.44-12.4 945.51-11.87 944.9-10.86 944.29-9.86 944.29-8.3L944.29-8.3Q944.29-5.86 945.39-4.79 946.49-3.71 948.59-3.71L948.59-3.71Q950.05-3.71 951.39-4.49 952.74-5.27 953.62-6.59L953.62-6.59ZM991.6-0.98L991.6 0 985.64 0 985.64-14.99Q985.64-16.65 985.5-18.16 985.35-19.68 984.81-20.85 984.28-22.02 983.35-22.68 982.42-23.34 980.76-23.34L980.76-23.34Q980.22-23.34 979.37-23.19 978.52-23.05 977.61-22.75 976.71-22.46 975.9-22.02 975.1-21.58 974.71-21L974.71-21 974.71-20.7 974.71-20.61 974.71-9.77 974.71-9.67 974.71 0 968.8 0 968.8-27.54 974.07-27.54 974.71-24.76Q975.29-25.29 976.2-25.85 977.1-26.42 978.17-26.86 979.25-27.29 980.37-27.56 981.49-27.83 982.57-27.83L982.57-27.83Q984.77-27.83 986.28-26.9 987.79-25.98 989.31-24.51L989.31-24.51Q990.14-23.68 990.6-22.58 991.06-21.48 991.28-20.29 991.5-19.09 991.55-17.87 991.6-16.65 991.6-15.48L991.6-15.48 991.6-0.98ZM1019.72-14.89L1019.72-8.54 1019.72-8.15Q1019.72-7.76 1019.77-7.01 1019.82-6.25 1019.97-5.47 1020.11-4.69 1020.43-4.05 1020.75-3.42 1021.29-3.22L1021.29-3.22 1019.72 0.05Q1019.09 0.05 1018.38-0.24 1017.67-0.54 1017.01-1.07 1016.36-1.61 1015.89-2.27 1015.43-2.93 1015.18-3.71L1015.18-3.71Q1014.84-2.88 1013.99-2.17 1013.13-1.46 1012.06-0.9 1010.98-0.34 1009.74-0.05 1008.49 0.24 1007.42 0.24L1007.42 0.24Q1005.76 0.24 1004.22-0.2 1002.68-0.63 1001.51-1.61 1000.34-2.59 999.68-4.2 999.02-5.81 999.02-8.15L999.02-8.15Q999.02-10.4 999.97-12.04 1000.93-13.67 1002.41-14.72 1003.9-15.77 1005.81-16.28 1007.71-16.8 1009.67-16.8L1009.67-16.8 1013.82-16.8Q1013.82-19.19 1013.57-20.61 1013.33-22.02 1012.74-22.68 1012.16-23.34 1011.3-23.51 1010.45-23.68 1009.27-23.68L1009.27-23.68Q1008.2-23.68 1007.25-23.41 1006.3-23.14 1005.49-22.78 1004.69-22.41 1004.07-21.97 1003.46-21.53 1003.17-21.29L1003.17-21.29 1000.97-24.66Q1001.46-25.2 1002.44-25.76 1003.42-26.32 1004.69-26.76 1005.95-27.2 1007.44-27.47 1008.93-27.73 1010.54-27.73L1010.54-27.73Q1012.01-27.73 1013.4-27.44 1014.79-27.15 1015.94-26.46 1017.09-25.78 1017.94-24.63 1018.8-23.49 1019.14-21.78L1019.14-21.78Q1019.48-20.07 1019.6-18.33 1019.72-16.6 1019.72-14.89L1019.72-14.89ZM1013.86-6.59L1013.86-13.33 1010.74-13.33Q1009.76-13.33 1008.69-13.13 1007.61-12.94 1006.69-12.4 1005.76-11.87 1005.15-10.86 1004.54-9.86 1004.54-8.3L1004.54-8.3Q1004.54-5.86 1005.64-4.79 1006.74-3.71 1008.84-3.71L1008.84-3.71Q1010.3-3.71 1011.64-4.49 1012.99-5.27 1013.86-6.59L1013.86-6.59ZM1060.98-35.99L1067.67-35.99 1056.98-14.65 1056.98 0 1051.02 0 1051.02-14.16 1040.86-35.99 1047.55-35.99 1053.75-19.87 1054.29-19.87 1060.98-35.99ZM1074.21-26.61L1074.21-26.56 1074.21-27.54 1080.17-27.54 1080.17-12.55Q1080.17-10.84 1080.31-9.35 1080.46-7.86 1080.95-6.74 1081.44-5.62 1082.41-4.93 1083.39-4.25 1085-4.25L1085-4.25Q1085.49-4.25 1086.37-4.37 1087.25-4.49 1088.15-4.79 1089.05-5.08 1089.86-5.52 1090.66-5.96 1091.05-6.54L1091.05-6.54 1091.05-6.88 1091.05-6.93 1091.05-17.87 1091.05-17.92 1091.05-27.54 1097.01-27.54 1097.01 0 1091.69 0 1091.05-2.83Q1090.47-2.29 1089.59-1.76 1088.71-1.22 1087.66-0.76 1086.61-0.29 1085.51-0.02 1084.41 0.24 1083.34 0.24L1083.34 0.24Q1082.17 0.24 1081.24 0.02 1080.31-0.2 1079.51-0.66 1078.7-1.12 1077.97-1.71 1077.24-2.29 1076.5-3.03L1076.5-3.03Q1075.67-3.86 1075.19-4.96 1074.7-6.05 1074.48-7.25 1074.26-8.45 1074.23-9.67 1074.21-10.89 1074.21-12.06L1074.21-12.06 1074.21-26.61ZM1121.33 0.2L1113.66 0.2 1103.99-27.54 1110.68-27.54 1117.52-4.59 1124.35-27.54 1130.99-27.54 1121.33 0.2ZM1157.31-14.89L1157.31-8.54 1157.31-8.15Q1157.31-7.76 1157.36-7.01 1157.41-6.25 1157.55-5.47 1157.7-4.69 1158.02-4.05 1158.33-3.42 1158.87-3.22L1158.87-3.22 1157.31 0.05Q1156.67 0.05 1155.97-0.24 1155.26-0.54 1154.6-1.07 1153.94-1.61 1153.48-2.27 1153.01-2.93 1152.77-3.71L1152.77-3.71Q1152.43-2.88 1151.57-2.17 1150.72-1.46 1149.64-0.9 1148.57-0.34 1147.32-0.05 1146.08 0.24 1145 0.24L1145 0.24Q1143.34 0.24 1141.81-0.2 1140.27-0.63 1139.1-1.61 1137.92-2.59 1137.27-4.2 1136.61-5.81 1136.61-8.15L1136.61-8.15Q1136.61-10.4 1137.56-12.04 1138.51-13.67 1140-14.72 1141.49-15.77 1143.39-16.28 1145.3-16.8 1147.25-16.8L1147.25-16.8 1151.4-16.8Q1151.4-19.19 1151.16-20.61 1150.91-22.02 1150.33-22.68 1149.74-23.34 1148.89-23.51 1148.03-23.68 1146.86-23.68L1146.86-23.68Q1145.79-23.68 1144.83-23.41 1143.88-23.14 1143.08-22.78 1142.27-22.41 1141.66-21.97 1141.05-21.53 1140.76-21.29L1140.76-21.29 1138.56-24.66Q1139.05-25.2 1140.02-25.76 1141-26.32 1142.27-26.76 1143.54-27.2 1145.03-27.47 1146.52-27.73 1148.13-27.73L1148.13-27.73Q1149.59-27.73 1150.99-27.44 1152.38-27.15 1153.53-26.46 1154.67-25.78 1155.53-24.63 1156.38-23.49 1156.72-21.78L1156.72-21.78Q1157.07-20.07 1157.19-18.33 1157.31-16.6 1157.31-14.89L1157.31-14.89ZM1151.45-6.59L1151.45-13.33 1148.32-13.33Q1147.35-13.33 1146.27-13.13 1145.2-12.94 1144.27-12.4 1143.34-11.87 1142.73-10.86 1142.12-9.86 1142.12-8.3L1142.12-8.3Q1142.12-5.86 1143.22-4.79 1144.32-3.71 1146.42-3.71L1146.42-3.71Q1147.89-3.71 1149.23-4.49 1150.57-5.27 1151.45-6.59L1151.45-6.59ZM1209.55-18.16L1209.55-18.16Q1209.55-13.62 1208.4-10.16 1207.26-6.69 1205.23-4.39 1203.2-2.1 1200.49-0.93 1197.78 0.24 1194.56 0.24L1194.56 0.24Q1191.34 0.24 1188.63-0.93 1185.92-2.1 1183.89-4.39 1181.86-6.69 1180.72-10.16 1179.57-13.62 1179.57-18.16L1179.57-18.16Q1179.57-22.71 1180.72-26.15 1181.86-29.59 1183.89-31.88 1185.92-34.18 1188.63-35.38 1191.34-36.57 1194.56-36.57L1194.56-36.57Q1197.78-36.57 1200.49-35.38 1203.2-34.18 1205.23-31.88 1207.26-29.59 1208.4-26.15 1209.55-22.71 1209.55-18.16ZM1194.41-4.54L1194.41-4.54Q1196.22-4.54 1197.86-5.25 1199.49-5.96 1200.79-7.57 1202.08-9.18 1202.81-11.79 1203.54-14.4 1203.59-18.16L1203.59-18.16Q1203.54-21.83 1202.84-24.39 1202.13-26.95 1200.88-28.61 1199.64-30.27 1198.05-31.01 1196.46-31.74 1194.71-31.74L1194.71-31.74Q1192.9-31.74 1191.26-31.05 1189.63-30.37 1188.33-28.74 1187.04-27.1 1186.31-24.51 1185.58-21.92 1185.53-18.16L1185.53-18.16Q1185.58-14.5 1186.28-11.91 1186.99-9.33 1188.24-7.69 1189.48-6.05 1191.07-5.3 1192.66-4.54 1194.41-4.54ZM1223.37-37.94L1223.37-8.4Q1223.37-6.74 1223.81-5.79 1224.25-4.83 1225.03-4.37 1225.81-3.91 1226.81-3.76 1227.81-3.61 1228.98-3.61L1228.98-3.61 1228.98 0Q1228.35 0.1 1227.66 0.15L1227.66 0.15Q1227.13 0.2 1226.39 0.22 1225.66 0.24 1224.93 0.24L1224.93 0.24Q1224.2 0.24 1223.46 0.2 1222.73 0.15 1222.15 0.05L1222.15 0.05Q1220.49-0.29 1219.56-1.42 1218.63-2.54 1218.14-3.93 1217.65-5.32 1217.53-6.64 1217.41-7.96 1217.41-8.69L1217.41-8.69 1217.41-9.28 1217.41-37.94 1223.37-37.94Z" opacity="1" transform="matrix(1,0,0,1,0,0)" fill="#ffffff" class="slogan-text-1" data-fill-palette-color="secondary" id="text-1"></path></svg></g></svg></g></svg></g></svg></g><g transform="matrix(1,0,0,1,124.49118922280054,0)"><svg viewBox="0 0 146.53762155439895 135.81442581044422" height="135.81442581044422" width="146.53762155439895"><g><svg xmlns="http://www.w3.org/2000/svg" xmlns:xlink="http://www.w3.org/1999/xlink" xmlns:a="http://ns.adobe.com/AdobeSVGViewerExtensions/3.0/" version="1.1" x="0" y="0" viewBox="0 0 96 88.975" overflow="visible" enable-background="new -2 -5.513 100 100" xml:space="preserve" height="135.81442581044422" width="146.53762155439895" class="icon-icon-0" data-fill-palette-color="accent" id="icon-0"><path fill="#ffffff" d="M0 77.854L27.805 88.975V11.122L0 0zM8.22 26.938L12.055 28.301 13.137 30.535C13.452 31.211 13.746 31.856 14.039 32.501L14.083 32.517C14.376 32.013 14.646 31.568 14.94 31.131L15.91 29.671 19.631 30.994 16 34.957 19.676 42.037 15.798 40.658 14.692 38.281C14.376 37.628 14.106 36.968 13.835 36.308L13.768 36.283C13.498 36.773 13.205 37.211 12.933 37.656L11.897 39.272 8.13 37.935 11.873 33.649z" data-fill-palette-color="accent"></path><polygon fill="#ffffff" points="68.195,0 68.195,77.854 96,88.975 96,11.122 " data-fill-palette-color="accent"></polygon><polygon fill="#ffffff" points="31.317,88.975 64.683,77.854 64.683,0 31.317,11.122 " data-fill-palette-color="accent"></polygon></svg></g></svg></g><g></g></svg></g><defs></defs></svg><rect width="395.52" height="240.5591801702654" fill="none" stroke="none" visibility="hidden"></rect></g></svg></g></svg>