<svg xmlns="http://www.w3.org/2000/svg" version="1.1" xmlns:xlink="http://www.w3.org/1999/xlink" xmlns:svgjs="http://svgjs.dev/svgjs" width="2000" height="414" viewBox="0 0 2000 414"><g transform="matrix(1,0,0,1,-1.2121212121212466,-1.5204393272660752)"><svg viewBox="0 0 396 82" data-background-color="#dddd6b" preserveAspectRatio="xMidYMid meet" height="414" width="2000" xmlns="http://www.w3.org/2000/svg" xmlns:xlink="http://www.w3.org/1999/xlink"><g id="tight-bounds" transform="matrix(1,0,0,1,0.2400000000000091,0.3011498184440029)"><svg viewBox="0 0 395.52 81.39770036311198" height="81.39770036311198" width="395.52"><g><svg viewBox="0 0 395.52 81.39770036311198" height="81.39770036311198" width="395.52"><g><svg viewBox="0 0 527.1235420253328 108.48160428833006" height="81.39770036311198" width="395.52"><g transform="matrix(1,0,0,1,131.6035420253328,3.2693114153464293)"><svg viewBox="0 0 395.52 101.9429814576372" height="101.9429814576372" width="395.52"><g id="textblocktransform"><svg viewBox="0 0 395.52 101.9429814576372" height="101.9429814576372" width="395.52" id="textblock"><g><svg viewBox="0 0 395.52 67.74061490359561" height="67.74061490359561" width="395.52"><g transform="matrix(1,0,0,1,0,0)"><svg width="395.52" viewBox="2.3 -43.85 287.82 49.300000000000004" height="67.74061490359561" data-palette-color="#b2572b"><path d="M41.15-29.8Q41.15-25.55 38.95-22 36.75-18.45 32.55-16.2 28.35-13.95 22.55-13.55L22.55-13.55 20.4-1.5Q19.15 5.45 13.6 5.45L13.6 5.45Q10.55 5.45 7.98 3.65 5.4 1.85 3.85-1.85 2.3-5.55 2.3-10.95L2.3-10.95Q2.3-21.1 5.58-28.18 8.85-35.25 14.38-38.78 19.9-42.3 26.55-42.3L26.55-42.3Q31.25-42.3 34.52-40.65 37.8-39 39.48-36.18 41.15-33.35 41.15-29.8L41.15-29.8ZM23.45-18.7Q33.7-20 33.7-29.35L33.7-29.35Q33.7-32.65 31.53-34.73 29.35-36.8 24.8-36.8L24.8-36.8Q19.65-36.8 15.83-33.55 12-30.3 9.93-24.53 7.85-18.75 7.85-11.35L7.85-11.35Q7.85-8.25 8.47-5.85 9.1-3.45 10.08-2.13 11.05-0.8 11.95-0.8L11.95-0.8Q13.2-0.8 13.85-4.25L13.85-4.25 15.5-13.7Q13.55-14 13.8-13.95L13.8-13.95Q12.3-14.2 11.85-14.88 11.4-15.55 11.4-16.6L11.4-16.6Q11.4-17.7 12.03-18.35 12.65-19 13.75-19L13.75-19Q14.25-19 14.5-18.95L14.5-18.95Q15.7-18.75 16.35-18.7L16.35-18.7Q17-22.6 18.2-29.15L18.2-29.15Q18.5-30.85 19.58-31.58 20.65-32.3 22.1-32.3L22.1-32.3Q23.75-32.3 24.48-31.68 25.2-31.05 25.2-29.7L25.2-29.7Q25.2-28.9 25.1-28.4L25.1-28.4 23.45-18.7ZM44.55 0.25Q41.45 0.25 39.6-2 37.75-4.25 37.75-7.9L37.75-7.9Q37.75-11.9 39.6-15.48 41.45-19.05 44.52-21.23 47.6-23.4 51.05-23.4L51.05-23.4Q52.15-23.4 52.52-22.98 52.9-22.55 53.15-21.45L53.15-21.45Q54.2-21.65 55.35-21.65L55.35-21.65Q57.8-21.65 57.8-19.9L57.8-19.9Q57.8-18.85 57.05-14.9L57.05-14.9Q55.9-9.15 55.9-6.9L55.9-6.9Q55.9-6.15 56.27-5.7 56.65-5.25 57.25-5.25L57.25-5.25Q58.2-5.25 59.55-6.48 60.9-7.7 63.2-10.45L63.2-10.45Q63.8-11.15 64.55-11.15L64.55-11.15Q65.2-11.15 65.57-10.55 65.95-9.95 65.95-8.9L65.95-8.9Q65.95-6.9 65-5.8L65-5.8Q62.95-3.25 60.65-1.5 58.35 0.25 56.2 0.25L56.2 0.25Q54.55 0.25 53.17-0.88 51.8-2 51.1-3.95L51.1-3.95Q48.5 0.25 44.55 0.25L44.55 0.25ZM46.35-4.8Q47.45-4.8 48.45-6.1 49.45-7.4 49.9-9.55L49.9-9.55 51.75-18.75Q49.65-18.7 47.87-17.18 46.1-15.65 45.05-13.15 44-10.65 44-7.85L44-7.85Q44-6.3 44.62-5.55 45.25-4.8 46.35-4.8L46.35-4.8ZM84.2-11.15Q84.84-11.15 85.22-10.55 85.59-9.95 85.59-8.9L85.59-8.9Q85.59-6.9 84.65-5.8L84.65-5.8Q82.5-3.15 79.95-1.45 77.4 0.25 74.09 0.25L74.09 0.25Q63.9 0.25 63.9-14.1L63.9-14.1Q63.9-16.3 64.05-18.55L64.05-18.55 62.1-18.55Q60.6-18.55 60.07-19.1 59.55-19.65 59.55-20.85L59.55-20.85Q59.55-23.65 61.8-23.65L61.8-23.65 64.65-23.65Q65.5-29.15 67.25-33.7 69-38.25 71.47-40.95 73.95-43.65 76.8-43.65L76.8-43.65Q78.9-43.65 80.09-41.8 81.3-39.95 81.3-37.15L81.3-37.15Q81.3-29.4 74.8-23.65L74.8-23.65 80.4-23.65Q81.2-23.65 81.55-23.3 81.9-22.95 81.9-22L81.9-22Q81.9-18.55 76.25-18.55L76.25-18.55 70.15-18.55Q70.05-16.05 70.05-14.65L70.05-14.65Q70.05-9.45 71.27-7.35 72.5-5.25 75.15-5.25L75.15-5.25Q77.3-5.25 78.95-6.55 80.59-7.85 82.84-10.45L82.84-10.45Q83.45-11.15 84.2-11.15L84.2-11.15ZM75.45-38.85Q74.7-38.85 73.77-36.98 72.84-35.1 72.02-31.78 71.2-28.45 70.65-24.4L70.65-24.4Q73.59-26.95 75.07-30.13 76.55-33.3 76.55-35.9L76.55-35.9Q76.55-38.85 75.45-38.85L75.45-38.85ZM88.09-26.6Q85.99-26.6 84.94-27.58 83.89-28.55 83.89-30.3L83.89-30.3Q83.89-32.05 85.27-33.23 86.64-34.4 88.69-34.4L88.69-34.4Q90.54-34.4 91.69-33.5 92.84-32.6 92.84-30.95L92.84-30.95Q92.84-28.95 91.54-27.78 90.24-26.6 88.09-26.6L88.09-26.6ZM87.69 0.25Q84.44 0.25 82.97-2.05 81.49-4.35 81.49-8.15L81.49-8.15Q81.49-10.4 82.07-13.93 82.64-17.45 83.54-20.5L83.54-20.5Q83.99-22.1 84.74-22.7 85.49-23.3 87.14-23.3L87.14-23.3Q89.69-23.3 89.69-21.6L89.69-21.6Q89.69-20.35 88.74-15.8L88.74-15.8Q87.54-10.3 87.54-8.35L87.54-8.35Q87.54-6.85 87.94-6.05 88.34-5.25 89.29-5.25L89.29-5.25Q90.19-5.25 91.54-6.5 92.89-7.75 95.14-10.45L95.14-10.45Q95.74-11.15 96.49-11.15L96.49-11.15Q97.14-11.15 97.52-10.55 97.89-9.95 97.89-8.9L97.89-8.9Q97.89-6.9 96.94-5.8L96.94-5.8Q91.99 0.25 87.69 0.25L87.69 0.25ZM153.39-11.15Q154.04-11.15 154.41-10.55 154.79-9.95 154.79-8.9L154.79-8.9Q154.79-6.95 153.84-5.8L153.84-5.8Q148.89 0.25 143.29 0.25L143.29 0.25Q138.44 0.25 135.54-3.5 132.64-7.25 132.64-14.25L132.64-14.25Q132.64-15.95 132.79-17.65L132.79-17.65Q129.49-17.05 125.59-16.75L125.59-16.75Q122.99-16.55 122.04-16.5L122.04-16.5Q121.04-11.4 119.24-4L119.24-4Q118.19 0.35 115.24 0.35L115.24 0.35Q112.04 0.35 112.04-2.55L112.04-2.55Q112.04-3.2 112.29-4.35L112.29-4.35Q113.99-11.2 114.99-15.95L114.99-15.95 112.59-15.85Q110.94-15.85 110.19-16.43 109.44-17 109.44-18.3L109.44-18.3Q109.44-19.95 110.39-20.73 111.34-21.5 113.54-21.6L113.54-21.6 116.19-21.7Q117.49-28.75 117.49-32.45L117.49-32.45Q117.49-34.8 116.79-35.65 116.09-36.5 114.94-36.5L114.94-36.5Q111.44-36.5 107.04-30.65L107.04-30.65Q106.39-29.8 105.59-29.8L105.59-29.8Q104.89-29.8 104.39-30.45 103.89-31.1 103.89-32.1L103.89-32.1Q103.89-33.65 105.14-35.4L105.14-35.4Q107.34-38.45 110.69-40.43 114.04-42.4 117.49-42.4L117.49-42.4Q120.74-42.4 122.51-40.18 124.29-37.95 124.29-33.25L124.29-33.25Q124.29-29.1 123.09-22L123.09-22 127.99-22.25Q131.14-22.4 133.39-22.75L133.39-22.75Q134.29-28.25 136.14-33.05 137.99-37.85 140.74-40.85 143.49-43.85 146.89-43.85L146.89-43.85Q149.39-43.85 150.84-41.88 152.29-39.9 152.29-36.7L152.29-36.7Q152.29-24.3 139.64-19.5L139.64-19.5Q139.49-17.5 139.49-15.35L139.49-15.35Q139.49-10.1 140.79-7.9 142.09-5.7 144.44-5.7L144.44-5.7Q146.49-5.7 148.19-6.78 149.89-7.85 152.04-10.45L152.04-10.45Q152.64-11.15 153.39-11.15L153.39-11.15ZM146.64-39.5Q145.54-39.5 144.31-37.5 143.09-35.5 141.99-32.05 140.89-28.6 140.24-24.5L140.24-24.5Q144.24-26.15 146.14-29.2 148.04-32.25 148.04-37.05L148.04-37.05Q148.04-38.2 147.64-38.85 147.24-39.5 146.64-39.5L146.64-39.5ZM156.89 0.25Q153.79 0.25 151.94-2 150.09-4.25 150.09-7.9L150.09-7.9Q150.09-11.9 151.94-15.48 153.79-19.05 156.86-21.23 159.94-23.4 163.39-23.4L163.39-23.4Q164.49-23.4 164.86-22.98 165.24-22.55 165.49-21.45L165.49-21.45Q166.54-21.65 167.69-21.65L167.69-21.65Q170.14-21.65 170.14-19.9L170.14-19.9Q170.14-18.85 169.39-14.9L169.39-14.9Q168.24-9.15 168.24-6.9L168.24-6.9Q168.24-6.15 168.61-5.7 168.99-5.25 169.59-5.25L169.59-5.25Q170.54-5.25 171.89-6.48 173.24-7.7 175.54-10.45L175.54-10.45Q176.14-11.15 176.89-11.15L176.89-11.15Q177.54-11.15 177.91-10.55 178.29-9.95 178.29-8.9L178.29-8.9Q178.29-6.9 177.34-5.8L177.34-5.8Q175.29-3.25 172.99-1.5 170.69 0.25 168.54 0.25L168.54 0.25Q166.89 0.25 165.51-0.88 164.14-2 163.44-3.95L163.44-3.95Q160.84 0.25 156.89 0.25L156.89 0.25ZM158.69-4.8Q159.79-4.8 160.79-6.1 161.79-7.4 162.24-9.55L162.24-9.55 164.09-18.75Q161.99-18.7 160.21-17.18 158.44-15.65 157.39-13.15 156.34-10.65 156.34-7.85L156.34-7.85Q156.34-6.3 156.96-5.55 157.59-4.8 158.69-4.8L158.69-4.8ZM177.78 0.25Q175.88 0.25 175.11-1.75 174.33-3.75 174.33-8.15L174.33-8.15Q174.33-14.65 176.18-20.5L176.18-20.5Q176.63-21.95 177.66-22.63 178.68-23.3 180.53-23.3L180.53-23.3Q181.53-23.3 181.93-23.05 182.33-22.8 182.33-22.1L182.33-22.1Q182.33-21.3 181.58-18.5L181.58-18.5Q181.08-16.5 180.78-15 180.48-13.5 180.28-11.3L180.28-11.3Q181.93-15.6 183.98-18.3 186.03-21 188.01-22.15 189.98-23.3 191.63-23.3L191.63-23.3Q194.88-23.3 194.88-20.05L194.88-20.05Q194.88-19.4 194.43-16.9L194.43-16.9Q194.03-14.9 194.03-14.4L194.03-14.4Q194.03-12.65 195.28-12.65L195.28-12.65Q196.68-12.65 198.88-14.85L198.88-14.85Q199.53-15.5 200.23-15.5L200.23-15.5Q200.88-15.5 201.26-14.93 201.63-14.35 201.63-13.4L201.63-13.4Q201.63-11.55 200.63-10.5L200.63-10.5Q199.23-9.05 197.36-8.03 195.48-7 193.38-7L193.38-7Q190.73-7 189.36-8.35 187.98-9.7 187.98-12L187.98-12Q187.98-12.75 188.13-13.5L188.13-13.5Q188.23-14.5 188.23-14.85L188.23-14.85Q188.23-15.65 187.68-15.65L187.68-15.65Q186.93-15.65 185.71-13.98 184.48-12.3 183.28-9.55 182.08-6.8 181.33-3.75L181.33-3.75Q180.78-1.4 180.06-0.58 179.33 0.25 177.78 0.25L177.78 0.25ZM203.53-26.6Q201.43-26.6 200.38-27.58 199.33-28.55 199.33-30.3L199.33-30.3Q199.33-32.05 200.71-33.23 202.08-34.4 204.13-34.4L204.13-34.4Q205.98-34.4 207.13-33.5 208.28-32.6 208.28-30.95L208.28-30.95Q208.28-28.95 206.98-27.78 205.68-26.6 203.53-26.6L203.53-26.6ZM203.13 0.25Q199.88 0.25 198.41-2.05 196.93-4.35 196.93-8.15L196.93-8.15Q196.93-10.4 197.51-13.93 198.08-17.45 198.98-20.5L198.98-20.5Q199.43-22.1 200.18-22.7 200.93-23.3 202.58-23.3L202.58-23.3Q205.13-23.3 205.13-21.6L205.13-21.6Q205.13-20.35 204.18-15.8L204.18-15.8Q202.98-10.3 202.98-8.35L202.98-8.35Q202.98-6.85 203.38-6.05 203.78-5.25 204.73-5.25L204.73-5.25Q205.63-5.25 206.98-6.5 208.33-7.75 210.58-10.45L210.58-10.45Q211.18-11.15 211.93-11.15L211.93-11.15Q212.58-11.15 212.96-10.55 213.33-9.95 213.33-8.9L213.33-8.9Q213.33-6.9 212.38-5.8L212.38-5.8Q207.43 0.25 203.13 0.25L203.13 0.25ZM231.58-11.15Q232.23-11.15 232.6-10.55 232.98-9.95 232.98-8.9L232.98-8.9Q232.98-6.9 232.03-5.8L232.03-5.8Q229.88-3.15 227.33-1.45 224.78 0.25 221.48 0.25L221.48 0.25Q211.28 0.25 211.28-14.1L211.28-14.1Q211.28-16.3 211.43-18.55L211.43-18.55 209.48-18.55Q207.98-18.55 207.45-19.1 206.93-19.65 206.93-20.85L206.93-20.85Q206.93-23.65 209.18-23.65L209.18-23.65 212.03-23.65Q212.88-29.15 214.63-33.7 216.38-38.25 218.85-40.95 221.33-43.65 224.18-43.65L224.18-43.65Q226.28-43.65 227.48-41.8 228.68-39.95 228.68-37.15L228.68-37.15Q228.68-29.4 222.18-23.65L222.18-23.65 227.78-23.65Q228.58-23.65 228.93-23.3 229.28-22.95 229.28-22L229.28-22Q229.28-18.55 223.63-18.55L223.63-18.55 217.53-18.55Q217.43-16.05 217.43-14.65L217.43-14.65Q217.43-9.45 218.65-7.35 219.88-5.25 222.53-5.25L222.53-5.25Q224.68-5.25 226.33-6.55 227.98-7.85 230.23-10.45L230.23-10.45Q230.83-11.15 231.58-11.15L231.58-11.15ZM222.83-38.85Q222.08-38.85 221.15-36.98 220.23-35.1 219.4-31.78 218.58-28.45 218.03-24.4L218.03-24.4Q220.98-26.95 222.45-30.13 223.93-33.3 223.93-35.9L223.93-35.9Q223.93-38.85 222.83-38.85L222.83-38.85ZM235.08 0.25Q231.98 0.25 230.13-2 228.28-4.25 228.28-7.9L228.28-7.9Q228.28-11.9 230.13-15.48 231.98-19.05 235.05-21.23 238.13-23.4 241.58-23.4L241.58-23.4Q242.68-23.4 243.05-22.98 243.43-22.55 243.68-21.45L243.68-21.45Q244.73-21.65 245.88-21.65L245.88-21.65Q248.33-21.65 248.33-19.9L248.33-19.9Q248.33-18.85 247.58-14.9L247.58-14.9Q246.43-9.15 246.43-6.9L246.43-6.9Q246.43-6.15 246.8-5.7 247.18-5.25 247.78-5.25L247.78-5.25Q248.73-5.25 250.08-6.48 251.43-7.7 253.73-10.45L253.73-10.45Q254.33-11.15 255.08-11.15L255.08-11.15Q255.73-11.15 256.1-10.55 256.48-9.95 256.48-8.9L256.48-8.9Q256.48-6.9 255.53-5.8L255.53-5.8Q253.48-3.25 251.18-1.5 248.88 0.25 246.73 0.25L246.73 0.25Q245.08 0.25 243.7-0.88 242.33-2 241.63-3.95L241.63-3.95Q239.03 0.25 235.08 0.25L235.08 0.25ZM236.88-4.8Q237.98-4.8 238.98-6.1 239.98-7.4 240.43-9.55L240.43-9.55 242.28-18.75Q240.18-18.7 238.4-17.18 236.63-15.65 235.58-13.15 234.53-10.65 234.53-7.85L234.53-7.85Q234.53-6.3 235.15-5.55 235.78-4.8 236.88-4.8L236.88-4.8ZM261.72 1.35Q259.12 1.35 257.75 0.15 256.37-1.05 256.37-2.55L256.37-2.55Q256.37-3.85 257.32-4.8 258.27-5.75 260.12-5.75L260.12-5.75Q260.77-5.75 261.65-5.63 262.52-5.5 262.97-5.45L262.97-5.45Q262.92-6.75 262.4-7.9 261.87-9.05 261.07-10.13 260.27-11.2 259.57-12L259.57-12Q258.02-9.05 256.5-7.1 254.97-5.15 253.17-3.4L253.17-3.4Q252.27-2.5 251.27-2.5L251.27-2.5Q250.47-2.5 249.97-3.08 249.47-3.65 249.47-4.5L249.47-4.5Q249.47-5.5 250.17-6.35L250.17-6.35 250.82-7.15Q253.57-10.55 254.97-12.75L254.97-12.75Q255.82-14.2 256.97-16.63 258.12-19.05 259.22-21.65L259.22-21.65Q260.17-23.85 263.17-23.85L263.17-23.85Q264.57-23.85 265.12-23.6 265.67-23.35 265.67-22.8L265.67-22.8Q265.67-22.5 265.47-21.85 265.27-21.2 264.92-20.55L264.92-20.55Q264.02-18.75 264.02-17.5L264.02-17.5Q264.02-16.75 264.55-15.85 265.07-14.95 266.17-13.6L266.17-13.6Q267.77-11.5 268.6-10.03 269.42-8.55 269.42-6.8L269.42-6.8Q269.42-6.3 269.32-5.4L269.32-5.4Q271.77-6.35 275.07-10.45L275.07-10.45Q275.67-11.15 276.42-11.15L276.42-11.15Q277.07-11.15 277.45-10.55 277.82-9.95 277.82-8.9L277.82-8.9Q277.82-7 276.87-5.8L276.87-5.8Q274.37-2.7 272.1-1.58 269.82-0.45 266.47-0.35L266.47-0.35Q264.47 1.35 261.72 1.35L261.72 1.35ZM279.92 0.25Q276.67 0.25 275.2-2.05 273.72-4.35 273.72-8.15L273.72-8.15Q273.72-10.4 274.3-13.93 274.87-17.45 275.77-20.5L275.77-20.5Q276.22-22.1 276.97-22.7 277.72-23.3 279.37-23.3L279.37-23.3Q281.92-23.3 281.92-21.6L281.92-21.6Q281.92-20.35 280.97-15.8L280.97-15.8Q279.77-10.3 279.77-8.35L279.77-8.35Q279.77-6.85 280.17-6.05 280.57-5.25 281.52-5.25L281.52-5.25Q282.42-5.25 283.77-6.5 285.12-7.75 287.37-10.45L287.37-10.45Q287.97-11.15 288.72-11.15L288.72-11.15Q289.37-11.15 289.75-10.55 290.12-9.95 290.12-8.9L290.12-8.9Q290.12-6.9 289.17-5.8L289.17-5.8Q284.22 0.25 279.92 0.25L279.92 0.25Z" opacity="1" transform="matrix(1,0,0,1,0,0)" fill="#b2572b" class="wordmark-text-0" data-fill-palette-color="primary" id="text-0"></path></svg></g></svg></g><g transform="matrix(1,0,0,1,0,83.73254830757685)"><svg viewBox="0 0 395.52 18.210433150060346" height="18.210433150060346" width="395.52"><g transform="matrix(1,0,0,1,0,0)"><svg width="395.52" viewBox="2.65 -39 1118.4299999999998 51.5" height="18.210433150060346" data-palette-color="#b2572b"><path d="M28.05-8.75L28.35 0 2.65 0 2.65-2.9 5.15-3.35Q6.05-3.5 6.33-3.88 6.6-4.25 6.6-5.25L6.6-5.25 6.6-30.8Q6.6-31.85 6.33-32.27 6.05-32.7 5.15-32.8L5.15-32.8 2.65-33.1 2.65-36 28.15-36 27.85-27.45 24.75-27.45 24.45-31.05Q24.4-31.9 23.98-32.2 23.55-32.5 22.55-32.5L22.55-32.5 10.75-32.5 10.75-20.45 22.65-20.45 22.65-17.15 10.75-17.15 10.75-3.5 22.7-3.5Q23.7-3.5 24.13-3.8 24.55-4.1 24.6-4.95L24.6-4.95 24.9-8.75 28.05-8.75ZM46-24L56.05-24 56.05-21.4 54.1-21.1Q53.1-20.95 52.65-19.75L52.65-19.75 45.35 0 41 0 33.15-19.95Q32.95-20.5 32.62-20.75 32.3-21 31.65-21.1L31.65-21.1 29.8-21.4 29.8-24 40.8-24 40.8-21.4 38.15-21.05Q37.35-21 37.35-20.35L37.35-20.35Q37.35-20 37.65-19.2L37.65-19.2 42.35-6.65 43.45-3.1 44.75-6.7 48.95-19.2Q49.25-20.1 49.25-20.35L49.25-20.35Q49.25-21 48.25-21.15L48.25-21.15 46-21.4 46-24ZM68.09 0.5Q62.85 0.5 60.1-2.45 57.35-5.4 57.35-11L57.35-11Q57.35-15.1 58.77-18.15 60.2-21.2 62.8-22.85 65.4-24.5 68.84-24.5L68.84-24.5Q71.25-24.5 73.3-23.93 75.34-23.35 76.45-22.65L76.45-22.65 76.05-16.5 73.2-16.5 72.59-20.2Q70.59-21.2 67.65-21.2L67.65-21.2Q64.4-21.2 63.05-19 61.7-16.8 61.7-12L61.7-12Q61.7-7.4 63.67-5.13 65.65-2.85 68.84-2.85L68.84-2.85Q70.65-2.85 72.32-3.2 74-3.55 76.5-4.2L76.5-4.2 77.09-1.6Q72.34 0.5 68.09 0.5L68.09 0.5ZM85.19-29.8Q83.64-29.8 83.04-30.45 82.44-31.1 82.44-32.6L82.44-32.6Q82.44-34.15 83.17-34.85 83.89-35.55 85.49-35.55L85.49-35.55Q87.04-35.55 87.62-34.88 88.19-34.2 88.19-32.55L88.19-32.55Q88.19-31 87.49-30.4 86.79-29.8 85.19-29.8L85.19-29.8ZM80.19 0L80.19-2.7 82.74-3.05Q83.49-3.1 83.69-3.48 83.89-3.85 83.89-4.9L83.89-4.9 83.89-19.2Q83.89-20.3 83.69-20.68 83.49-21.05 82.74-21.1L82.74-21.1 80.19-21.4 80.19-24 87.89-24 87.89-4.9Q87.89-3.85 88.12-3.48 88.34-3.1 89.04-3.05L89.04-3.05 91.64-2.7 91.64 0 80.19 0ZM94.04 0L94.04-2.7 96.64-3.05Q97.34-3.1 97.57-3.48 97.79-3.85 97.79-4.9L97.79-4.9 97.79-34.3Q97.79-35.3 97.57-35.63 97.34-35.95 96.64-36.05L96.64-36.05 94.04-36.35 94.04-39 101.79-39 101.79-4.9Q101.79-3.85 101.99-3.48 102.19-3.1 102.94-3.05L102.94-3.05 105.49-2.7 105.49 0 94.04 0ZM151.59-32.7Q150.69-32.55 150.41-32.18 150.14-31.8 150.14-30.8L150.14-30.8 150.14-5.2Q150.14-4.2 150.41-3.83 150.69-3.45 151.59-3.3L151.59-3.3 154.09-2.85 154.09 0 141.79 0 141.79-2.85 144.54-3.3Q145.44-3.45 145.71-3.83 145.99-4.2 145.99-5.2L145.99-5.2 145.99-17.2 128.84-17.2 128.84-5.2Q128.84-4.2 129.11-3.83 129.39-3.45 130.29-3.3L130.29-3.3 133.04-2.85 133.04 0 120.74 0 120.74-2.85 123.24-3.3Q124.14-3.45 124.41-3.83 124.69-4.2 124.69-5.2L124.69-5.2 124.69-30.8Q124.69-31.8 124.41-32.18 124.14-32.55 123.24-32.7L123.24-32.7 120.74-33.15 120.74-36 133.04-36 133.04-33.15 130.29-32.7Q129.39-32.55 129.11-32.18 128.84-31.8 128.84-30.8L128.84-30.8 128.84-20.5 145.99-20.5 145.99-30.8Q145.99-31.8 145.71-32.18 145.44-32.55 144.54-32.7L144.54-32.7 141.79-33.15 141.79-36 154.09-36 154.09-33.15 151.59-32.7ZM178.13-3.05L180.73-2.7 180.73 0 173.63 0 173.23-3.95Q170.98-1.75 168.98-0.63 166.98 0.5 164.88 0.5L164.88 0.5Q161.88 0.5 160.11-1.28 158.33-3.05 158.33-6L158.33-6Q158.33-8.95 160.11-10.78 161.88-12.6 165.18-13.05L165.18-13.05 173.03-14.15 173.03-17.5Q173.03-19.5 171.73-20.5 170.43-21.5 167.93-21.5L167.93-21.5Q165.18-21.5 163.13-20.55L163.13-20.55 162.53-16.9 159.68-16.9 159.28-22.65Q164.33-24.5 168.63-24.5L168.63-24.5Q172.13-24.5 174.58-22.7 177.03-20.9 177.03-17.6L177.03-17.6 177.03-4.9Q177.03-3.85 177.23-3.48 177.43-3.1 178.13-3.05L178.13-3.05ZM162.58-6.35Q162.58-4.7 163.48-3.8 164.38-2.9 165.93-2.9L165.93-2.9Q167.48-2.9 169.16-3.9 170.83-4.9 173.03-6.9L173.03-6.9 173.03-11.45 166.38-10.3Q164.53-10 163.56-9 162.58-8 162.58-6.35L162.58-6.35ZM196.83-24L207.78-24 207.78-21.4 205.58-21.1Q204.63-20.95 204.13-19.75L204.13-19.75 194.23 6.45Q192.08 12.5 186.73 12.5L186.73 12.5Q185.28 12.5 184.31 12.33 183.33 12.15 182.23 11.85L182.23 11.85 181.73 8.85Q182.43 9.05 183.56 9.18 184.68 9.3 185.33 9.3L185.33 9.3Q189.43 9.3 191.08 4.95L191.08 4.95 192.48 1.15 184.48-19.7Q184.23-20.4 183.88-20.73 183.53-21.05 182.93-21.1L182.93-21.1 180.78-21.4 180.78-24 192.43-24 192.43-21.45 189.53-21.1Q189.18-21.05 188.96-20.85 188.73-20.65 188.73-20.35L188.73-20.35Q188.73-20.1 189.08-19.05L189.08-19.05 194.28-4.95 194.88-3.15 195.03-4.95 200.23-19.05Q200.53-19.95 200.53-20.35L200.53-20.35Q200.53-20.65 200.31-20.85 200.08-21.05 199.78-21.1L199.78-21.1 196.83-21.45 196.83-24ZM222.88-24L232.93-24 232.93-21.4 230.98-21.1Q229.98-20.95 229.53-19.75L229.53-19.75 222.23 0 217.88 0 210.03-19.95Q209.83-20.5 209.5-20.75 209.18-21 208.53-21.1L208.53-21.1 206.68-21.4 206.68-24 217.68-24 217.68-21.4 215.03-21.05Q214.23-21 214.23-20.35L214.23-20.35Q214.23-20 214.53-19.2L214.53-19.2 219.23-6.65 220.33-3.1 221.63-6.7 225.83-19.2Q226.13-20.1 226.13-20.35L226.13-20.35Q226.13-21 225.13-21.15L225.13-21.15 222.88-21.4 222.88-24ZM254.53-3.05L257.13-2.7 257.13 0 250.03 0 249.63-3.95Q247.38-1.75 245.38-0.63 243.38 0.5 241.28 0.5L241.28 0.5Q238.28 0.5 236.5-1.28 234.73-3.05 234.73-6L234.73-6Q234.73-8.95 236.5-10.78 238.28-12.6 241.58-13.05L241.58-13.05 249.43-14.15 249.43-17.5Q249.43-19.5 248.13-20.5 246.83-21.5 244.33-21.5L244.33-21.5Q241.58-21.5 239.53-20.55L239.53-20.55 238.93-16.9 236.08-16.9 235.68-22.65Q240.73-24.5 245.03-24.5L245.03-24.5Q248.53-24.5 250.98-22.7 253.43-20.9 253.43-17.6L253.43-17.6 253.43-4.9Q253.43-3.85 253.63-3.48 253.83-3.1 254.53-3.05L254.53-3.05ZM238.98-6.35Q238.98-4.7 239.88-3.8 240.78-2.9 242.33-2.9L242.33-2.9Q243.88-2.9 245.55-3.9 247.23-4.9 249.43-6.9L249.43-6.9 249.43-11.45 242.78-10.3Q240.93-10 239.95-9 238.98-8 238.98-6.35L238.98-6.35ZM285.27-3.05L287.87-2.7 287.87 0 280.12 0 280.12-16Q280.12-18.3 278.82-19.55 277.52-20.8 274.97-20.8L274.97-20.8Q272.82-20.8 271.02-19.73 269.22-18.65 268.22-16.9L268.22-16.9 268.22-4.9Q268.22-3.85 268.45-3.48 268.67-3.1 269.37-3.05L269.37-3.05 272.12-2.7 272.12 0 260.52 0 260.52-2.7 263.07-3.05Q263.82-3.1 264.02-3.48 264.22-3.85 264.22-4.9L264.22-4.9 264.22-19.55Q264.22-20.4 263.97-20.75 263.72-21.1 262.97-21.15L262.97-21.15 260.52-21.4 260.52-24 267.62-24 268.07-20.3Q269.87-22.35 271.95-23.43 274.02-24.5 276.52-24.5L276.52-24.5Q280.17-24.5 282.15-22.5 284.12-20.5 284.12-17.35L284.12-17.35 284.12-4.9Q284.12-3.85 284.32-3.48 284.52-3.1 285.27-3.05L285.27-3.05ZM299.02-24L291.12-24 291.12-21.4 293.87-21.1Q294.62-21.05 294.82-20.68 295.02-20.3 295.02-19.2L295.02-19.2 295.02-4.9Q295.02-3.85 294.82-3.48 294.62-3.1 293.87-3.05L293.87-3.05 291.12-2.7 291.12 0 302.92 0 302.92-2.7 300.17-3.05Q299.42-3.1 299.22-3.48 299.02-3.85 299.02-4.9L299.02-4.9 299.02-24ZM331.27-3.05L333.87-2.7 333.87 0 326.12 0 326.12-16Q326.12-18.3 324.82-19.55 323.52-20.8 320.97-20.8L320.97-20.8Q318.82-20.8 317.02-19.73 315.22-18.65 314.22-16.9L314.22-16.9 314.22-4.9Q314.22-3.85 314.44-3.48 314.67-3.1 315.37-3.05L315.37-3.05 318.12-2.7 318.12 0 306.52 0 306.52-2.7 309.07-3.05Q309.82-3.1 310.02-3.48 310.22-3.85 310.22-4.9L310.22-4.9 310.22-19.55Q310.22-20.4 309.97-20.75 309.72-21.1 308.97-21.15L308.97-21.15 306.52-21.4 306.52-24 313.62-24 314.07-20.3Q315.87-22.35 317.94-23.43 320.02-24.5 322.52-24.5L322.52-24.5Q326.17-24.5 328.14-22.5 330.12-20.5 330.12-17.35L330.12-17.35 330.12-4.9Q330.12-3.85 330.32-3.48 330.52-3.1 331.27-3.05L331.27-3.05ZM345.02-24L337.12-24 337.12-21.4 339.87-21.1Q340.62-21.05 340.82-20.68 341.02-20.3 341.02-19.2L341.02-19.2 341.02-4.9Q341.02-3.85 340.82-3.48 340.62-3.1 339.87-3.05L339.87-3.05 337.12-2.7 337.12 0 348.92 0 348.92-2.7 346.17-3.05Q345.42-3.1 345.22-3.48 345.02-3.85 345.02-4.9L345.02-4.9 345.02-24ZM383.81-19.3Q387.51-18.95 389.69-16.78 391.86-14.6 391.86-10.7L391.86-10.7Q391.86-5.75 388.46-2.88 385.06 0 379.11 0L379.11 0 365.41 0 365.41-2.85 367.91-3.3Q368.81-3.45 369.09-3.83 369.36-4.2 369.36-5.2L369.36-5.2 369.36-30.8Q369.36-31.8 369.09-32.18 368.81-32.55 367.91-32.7L367.91-32.7 365.41-33.15 365.41-36 378.21-36Q389.46-36 389.46-27.75L389.46-27.75Q389.46-24.75 387.91-22.38 386.36-20 383.81-19.3L383.81-19.3ZM384.96-26.35Q384.96-29.85 383.06-31.18 381.16-32.5 377.01-32.5L377.01-32.5 373.46-32.5 373.46-20.4 377.66-20.4Q381.56-20.4 383.26-21.7 384.96-23 384.96-26.35L384.96-26.35ZM379.06-3.5Q383.31-3.5 385.34-5 387.36-6.5 387.36-10.1L387.36-10.1Q387.36-13.8 385.29-15.4 383.21-17 379.06-17L379.06-17 373.46-17 373.46-3.5 379.06-3.5ZM419.41-3.05L422.01-2.7 422.01 0 415.01 0 414.61-3.8Q410.71 0.5 406.16 0.5L406.16 0.5Q402.46 0.5 400.43-1.35 398.41-3.2 398.41-6.65L398.41-6.65 398.41-19.2Q398.41-20.3 398.21-20.68 398.01-21.05 397.26-21.1L397.26-21.1 394.66-21.4 394.66-24 402.41-24 402.41-8Q402.41-3.25 407.06-3.25L407.06-3.25Q411.71-3.25 414.31-7.1L414.31-7.1 414.31-19.2Q414.31-20.3 414.08-20.68 413.86-21.05 413.16-21.1L413.16-21.1 410.41-21.4 410.41-24 418.31-24 418.31-4.9Q418.31-3.85 418.51-3.48 418.71-3.1 419.41-3.05L419.41-3.05ZM424.86 0L424.86-2.7 427.46-3.05Q428.16-3.1 428.38-3.48 428.61-3.85 428.61-4.9L428.61-4.9 428.61-34.3Q428.61-35.3 428.38-35.63 428.16-35.95 427.46-36.05L427.46-36.05 424.86-36.35 424.86-39 432.61-39 432.61-4.9Q432.61-3.85 432.81-3.48 433.01-3.1 433.76-3.05L433.76-3.05 436.31-2.7 436.31 0 424.86 0ZM443.15-5.75Q444.75-5.75 445.75-4.75 446.75-3.75 446.75-1.9L446.75-1.9Q446.75 0.7 445.3 2.8 443.85 4.9 441.3 6.3L441.3 6.3 440.05 4.8Q441.45 4.2 442.58 3.03 443.7 1.85 444 0.3L444 0.3Q443.8 0.35 443.55 0.4 443.3 0.45 442.95 0.45L442.95 0.45Q441.65 0.45 440.85-0.35 440.05-1.15 440.05-2.55L440.05-2.55Q440.05-4.1 440.88-4.93 441.7-5.75 443.15-5.75L443.15-5.75ZM474.25 0.5Q468.35 0.5 463.7-1.75L463.7-1.75 464.3-9.85 467.65-9.85 468.4-4.2Q471.35-2.85 475.25-2.85L475.25-2.85Q477.15-2.85 478.87-3.65 480.6-4.45 481.65-5.95 482.7-7.45 482.7-9.35L482.7-9.35Q482.7-10.85 482.25-11.85 481.8-12.85 480.57-13.73 479.35-14.6 477-15.55L477-15.55 471.55-17.75Q468.1-19.15 466.22-21.3 464.35-23.45 464.35-26.75L464.35-26.75Q464.35-29.4 465.72-31.63 467.1-33.85 469.62-35.15 472.15-36.45 475.55-36.45L475.55-36.45Q478.6-36.45 480.82-36.08 483.05-35.7 485.45-34.95L485.45-34.95 484.8-27.35 481.45-27.35 480.7-32.05Q478.3-33.1 474.6-33.1L474.6-33.1Q471.75-33.1 470.15-31.78 468.55-30.45 468.55-28L468.55-28Q468.55-25.5 469.8-24.05 471.05-22.6 474.45-21.25L474.45-21.25 478.6-19.6Q481.3-18.55 483-17.48 484.7-16.4 485.8-14.63 486.9-12.85 486.9-10.1L486.9-10.1Q486.9-7.15 485.25-4.73 483.6-2.3 480.7-0.9 477.8 0.5 474.25 0.5L474.25 0.5ZM511-3.05L513.6-2.7 513.6 0 506.5 0 506.09-3.95Q503.84-1.75 501.84-0.63 499.84 0.5 497.75 0.5L497.75 0.5Q494.75 0.5 492.97-1.28 491.19-3.05 491.19-6L491.19-6Q491.19-8.95 492.97-10.78 494.75-12.6 498.05-13.05L498.05-13.05 505.89-14.15 505.89-17.5Q505.89-19.5 504.59-20.5 503.3-21.5 500.8-21.5L500.8-21.5Q498.05-21.5 496-20.55L496-20.55 495.39-16.9 492.55-16.9 492.14-22.65Q497.19-24.5 501.5-24.5L501.5-24.5Q505-24.5 507.44-22.7 509.89-20.9 509.89-17.6L509.89-17.6 509.89-4.9Q509.89-3.85 510.09-3.48 510.3-3.1 511-3.05L511-3.05ZM495.44-6.35Q495.44-4.7 496.34-3.8 497.25-2.9 498.8-2.9L498.8-2.9Q500.34-2.9 502.02-3.9 503.69-4.9 505.89-6.9L505.89-6.9 505.89-11.45 499.25-10.3Q497.39-10 496.42-9 495.44-8 495.44-6.35L495.44-6.35ZM541.34-3.05L543.94-2.7 543.94 0 536.19 0 536.19-16Q536.19-18.3 534.89-19.55 533.59-20.8 531.04-20.8L531.04-20.8Q528.89-20.8 527.09-19.73 525.29-18.65 524.29-16.9L524.29-16.9 524.29-4.9Q524.29-3.85 524.52-3.48 524.74-3.1 525.44-3.05L525.44-3.05 528.19-2.7 528.19 0 516.59 0 516.59-2.7 519.14-3.05Q519.89-3.1 520.09-3.48 520.29-3.85 520.29-4.9L520.29-4.9 520.29-34.15Q520.29-35.25 520.09-35.63 519.89-36 519.14-36.05L519.14-36.05 516.59-36.35 516.59-39 524.29-39 524.29-20.4Q525.89-22.35 528.04-23.43 530.19-24.5 532.59-24.5L532.59-24.5Q536.24-24.5 538.22-22.5 540.19-20.5 540.19-17.35L540.19-17.35 540.19-4.9Q540.19-3.85 540.39-3.48 540.59-3.1 541.34-3.05L541.34-3.05ZM552.34-29.8Q550.79-29.8 550.19-30.45 549.59-31.1 549.59-32.6L549.59-32.6Q549.59-34.15 550.31-34.85 551.04-35.55 552.64-35.55L552.64-35.55Q554.19-35.55 554.76-34.88 555.34-34.2 555.34-32.55L555.34-32.55Q555.34-31 554.64-30.4 553.94-29.8 552.34-29.8L552.34-29.8ZM547.34 0L547.34-2.7 549.89-3.05Q550.64-3.1 550.84-3.48 551.04-3.85 551.04-4.9L551.04-4.9 551.04-19.2Q551.04-20.3 550.84-20.68 550.64-21.05 549.89-21.1L549.89-21.1 547.34-21.4 547.34-24 555.04-24 555.04-4.9Q555.04-3.85 555.26-3.48 555.49-3.1 556.19-3.05L556.19-3.05 558.79-2.7 558.79 0 547.34 0ZM576.99-24.5Q581.54-24.5 583.94-21.28 586.34-18.05 586.34-12.4L586.34-12.4Q586.34-8.8 584.76-5.85 583.19-2.9 580.46-1.2 577.74 0.5 574.34 0.5L574.34 0.5Q571.79 0.5 569.29-0.5L569.29-0.5 569.29 7.1Q569.29 8.15 569.51 8.53 569.74 8.9 570.44 8.95L570.44 8.95 573.84 9.3 573.84 12 561.49 12 561.49 9.3 564.19 8.95Q564.89 8.9 565.09 8.53 565.29 8.15 565.29 7.1L565.29 7.1 565.29-19.2Q565.29-20.3 565.09-20.68 564.89-21.05 564.19-21.1L564.19-21.1 561.59-21.4 561.59-24 568.79-24 569.19-20.75Q572.34-24.5 576.99-24.5L576.99-24.5ZM575.84-2.85Q579.14-2.85 580.56-5.23 581.99-7.6 581.99-12.4L581.99-12.4Q581.99-16.65 580.31-18.93 578.64-21.2 575.59-21.2L575.59-21.2Q573.69-21.2 571.99-20.13 570.29-19.05 569.29-17.4L569.29-17.4 569.29-4.6Q571.99-2.85 575.84-2.85L575.84-2.85ZM590.23-1.25L590.68-7.3 593.58-7.3 593.98-3.65Q596.38-2.6 599.18-2.6L599.18-2.6Q601.18-2.6 602.58-3.45 603.98-4.3 603.98-6.25L603.98-6.25Q603.98-7.4 603.08-8.22 602.18-9.05 600.33-9.8L600.33-9.8 596.83-11.2Q593.68-12.45 592.26-13.9 590.83-15.35 590.83-17.9L590.83-17.9Q590.83-21.1 593.43-22.8 596.03-24.5 599.68-24.5L599.68-24.5Q603.23-24.5 607.43-23.1L607.43-23.1 607.03-17.25 604.18-17.25 603.53-20.9Q601.08-21.65 598.78-21.65L598.78-21.65Q594.68-21.65 594.68-18.5L594.68-18.5Q594.68-17.15 595.66-16.28 596.63-15.4 598.73-14.55L598.73-14.55 601.83-13.35Q605.08-12.05 606.58-10.7 608.08-9.35 608.08-7L608.08-7Q608.08-4.7 606.81-3 605.53-1.3 603.43-0.4 601.33 0.5 598.93 0.5L598.93 0.5Q596.33 0.5 594.33 0.05 592.33-0.4 590.23-1.25L590.23-1.25ZM616.98-29.8Q615.43-29.8 614.83-30.45 614.23-31.1 614.23-32.6L614.23-32.6Q614.23-34.15 614.96-34.85 615.68-35.55 617.28-35.55L617.28-35.55Q618.83-35.55 619.41-34.88 619.98-34.2 619.98-32.55L619.98-32.55Q619.98-31 619.28-30.4 618.58-29.8 616.98-29.8L616.98-29.8ZM611.98 0L611.98-2.7 614.53-3.05Q615.28-3.1 615.48-3.48 615.68-3.85 615.68-4.9L615.68-4.9 615.68-19.2Q615.68-20.3 615.48-20.68 615.28-21.05 614.53-21.1L614.53-21.1 611.98-21.4 611.98-24 619.68-24 619.68-4.9Q619.68-3.85 619.91-3.48 620.13-3.1 620.83-3.05L620.83-3.05 623.43-2.7 623.43 0 611.98 0ZM626.83 0L626.83-3.25 641.73-21.05 631.98-21.05Q630.83-21.05 630.45-20.85 630.08-20.65 630.03-19.9L630.03-19.9 629.68-16.65 626.98-16.65 626.63-24 646.33-24 646.33-20.85 631.33-3.05 641.98-3.05Q643.13-3.05 643.5-3.25 643.88-3.45 643.93-4.2L643.93-4.2 644.28-7.85 647.03-7.85 647.33 0 626.83 0ZM682.32-19.3Q686.02-18.95 688.2-16.78 690.37-14.6 690.37-10.7L690.37-10.7Q690.37-5.75 686.97-2.88 683.57 0 677.62 0L677.62 0 663.92 0 663.92-2.85 666.42-3.3Q667.32-3.45 667.6-3.83 667.87-4.2 667.87-5.2L667.87-5.2 667.87-30.8Q667.87-31.8 667.6-32.18 667.32-32.55 666.42-32.7L666.42-32.7 663.92-33.15 663.92-36 676.72-36Q687.97-36 687.97-27.75L687.97-27.75Q687.97-24.75 686.42-22.38 684.87-20 682.32-19.3L682.32-19.3ZM683.47-26.35Q683.47-29.85 681.57-31.18 679.67-32.5 675.52-32.5L675.52-32.5 671.97-32.5 671.97-20.4 676.17-20.4Q680.07-20.4 681.77-21.7 683.47-23 683.47-26.35L683.47-26.35ZM677.57-3.5Q681.82-3.5 683.85-5 685.87-6.5 685.87-10.1L685.87-10.1Q685.87-13.8 683.8-15.4 681.72-17 677.57-17L677.57-17 671.97-17 671.97-3.5 677.57-3.5ZM699.57-29.8Q698.02-29.8 697.42-30.45 696.82-31.1 696.82-32.6L696.82-32.6Q696.82-34.15 697.55-34.85 698.27-35.55 699.87-35.55L699.87-35.55Q701.42-35.55 702-34.88 702.57-34.2 702.57-32.55L702.57-32.55Q702.57-31 701.87-30.4 701.17-29.8 699.57-29.8L699.57-29.8ZM694.57 0L694.57-2.7 697.12-3.05Q697.87-3.1 698.07-3.48 698.27-3.85 698.27-4.9L698.27-4.9 698.27-19.2Q698.27-20.3 698.07-20.68 697.87-21.05 697.12-21.1L697.12-21.1 694.57-21.4 694.57-24 702.27-24 702.27-4.9Q702.27-3.85 702.5-3.48 702.72-3.1 703.42-3.05L703.42-3.05 706.02-2.7 706.02 0 694.57 0ZM724.72-24.5Q727.02-24.5 728.72-23.55L728.72-23.55 728.32-17.25 725.42-17.25 724.87-20.4Q724.27-20.8 723.02-20.8L723.02-20.8Q721.07-20.8 719.42-19.05 717.77-17.3 717.17-14.85L717.17-14.85 717.17-4.9Q717.17-3.85 717.39-3.48 717.62-3.1 718.32-3.05L718.32-3.05 721.87-2.7 721.87 0 709.37 0 709.37-2.7 712.02-3.05Q712.77-3.1 712.97-3.48 713.17-3.85 713.17-4.9L713.17-4.9 713.17-19.2Q713.17-20.3 712.97-20.68 712.77-21.05 712.02-21.1L712.02-21.1 709.47-21.4 709.47-24 716.47-24 716.97-19.25Q718.07-21.45 720.22-22.98 722.37-24.5 724.72-24.5L724.72-24.5ZM773.06-32.7Q772.16-32.55 771.89-32.18 771.61-31.8 771.61-30.8L771.61-30.8 771.61-5.2Q771.61-4.2 771.89-3.83 772.16-3.45 773.06-3.3L773.06-3.3 775.56-2.85 775.56 0 763.26 0 763.26-2.85 766.01-3.3Q766.91-3.45 767.19-3.83 767.46-4.2 767.46-5.2L767.46-5.2 767.46-17.2 750.31-17.2 750.31-5.2Q750.31-4.2 750.59-3.83 750.86-3.45 751.76-3.3L751.76-3.3 754.51-2.85 754.51 0 742.21 0 742.21-2.85 744.71-3.3Q745.61-3.45 745.89-3.83 746.16-4.2 746.16-5.2L746.16-5.2 746.16-30.8Q746.16-31.8 745.89-32.18 745.61-32.55 744.71-32.7L744.71-32.7 742.21-33.15 742.21-36 754.51-36 754.51-33.15 751.76-32.7Q750.86-32.55 750.59-32.18 750.31-31.8 750.31-30.8L750.31-30.8 750.31-20.5 767.46-20.5 767.46-30.8Q767.46-31.8 767.19-32.18 766.91-32.55 766.01-32.7L766.01-32.7 763.26-33.15 763.26-36 775.56-36 775.56-33.15 773.06-32.7ZM799.61-3.05L802.21-2.7 802.21 0 795.11 0 794.71-3.95Q792.46-1.75 790.46-0.63 788.46 0.5 786.36 0.5L786.36 0.5Q783.36 0.5 781.59-1.28 779.81-3.05 779.81-6L779.81-6Q779.81-8.95 781.59-10.78 783.36-12.6 786.66-13.05L786.66-13.05 794.51-14.15 794.51-17.5Q794.51-19.5 793.21-20.5 791.91-21.5 789.41-21.5L789.41-21.5Q786.66-21.5 784.61-20.55L784.61-20.55 784.01-16.9 781.16-16.9 780.76-22.65Q785.81-24.5 790.11-24.5L790.11-24.5Q793.61-24.5 796.06-22.7 798.51-20.9 798.51-17.6L798.51-17.6 798.51-4.9Q798.51-3.85 798.71-3.48 798.91-3.1 799.61-3.05L799.61-3.05ZM784.06-6.35Q784.06-4.7 784.96-3.8 785.86-2.9 787.41-2.9L787.41-2.9Q788.96-2.9 790.64-3.9 792.31-4.9 794.51-6.9L794.51-6.9 794.51-11.45 787.86-10.3Q786.01-10 785.04-9 784.06-8 784.06-6.35L784.06-6.35ZM818.31-24L829.26-24 829.26-21.4 827.06-21.1Q826.11-20.95 825.61-19.75L825.61-19.75 815.71 6.45Q813.56 12.5 808.21 12.5L808.21 12.5Q806.76 12.5 805.78 12.33 804.81 12.15 803.71 11.85L803.71 11.85 803.21 8.85Q803.91 9.05 805.03 9.18 806.16 9.3 806.81 9.3L806.81 9.3Q810.91 9.3 812.56 4.95L812.56 4.95 813.96 1.15 805.96-19.7Q805.71-20.4 805.36-20.73 805.01-21.05 804.41-21.1L804.41-21.1 802.26-21.4 802.26-24 813.91-24 813.91-21.45 811.01-21.1Q810.66-21.05 810.43-20.85 810.21-20.65 810.21-20.35L810.21-20.35Q810.21-20.1 810.56-19.05L810.56-19.05 815.76-4.95 816.36-3.15 816.51-4.95 821.71-19.05Q822.01-19.95 822.01-20.35L822.01-20.35Q822.01-20.65 821.78-20.85 821.56-21.05 821.26-21.1L821.26-21.1 818.31-21.45 818.31-24ZM844.36-24L854.41-24 854.41-21.4 852.46-21.1Q851.46-20.95 851.01-19.75L851.01-19.75 843.71 0 839.36 0 831.51-19.95Q831.31-20.5 830.98-20.75 830.66-21 830.01-21.1L830.01-21.1 828.16-21.4 828.16-24 839.16-24 839.16-21.4 836.51-21.05Q835.71-21 835.71-20.35L835.71-20.35Q835.71-20 836.01-19.2L836.01-19.2 840.71-6.65 841.81-3.1 843.11-6.7 847.31-19.2Q847.61-20.1 847.61-20.35L847.61-20.35Q847.61-21 846.61-21.15L846.61-21.15 844.36-21.4 844.36-24ZM876-3.05L878.6-2.7 878.6 0 871.5 0 871.1-3.95Q868.85-1.75 866.85-0.63 864.85 0.5 862.75 0.5L862.75 0.5Q859.75 0.5 857.98-1.28 856.2-3.05 856.2-6L856.2-6Q856.2-8.95 857.98-10.78 859.75-12.6 863.05-13.05L863.05-13.05 870.9-14.15 870.9-17.5Q870.9-19.5 869.6-20.5 868.3-21.5 865.8-21.5L865.8-21.5Q863.05-21.5 861-20.55L861-20.55 860.4-16.9 857.55-16.9 857.15-22.65Q862.2-24.5 866.5-24.5L866.5-24.5Q870-24.5 872.45-22.7 874.9-20.9 874.9-17.6L874.9-17.6 874.9-4.9Q874.9-3.85 875.1-3.48 875.3-3.1 876-3.05L876-3.05ZM860.45-6.35Q860.45-4.7 861.35-3.8 862.25-2.9 863.8-2.9L863.8-2.9Q865.35-2.9 867.03-3.9 868.7-4.9 870.9-6.9L870.9-6.9 870.9-11.45 864.25-10.3Q862.4-10 861.43-9 860.45-8 860.45-6.35L860.45-6.35ZM906.75-3.05L909.35-2.7 909.35 0 901.6 0 901.6-16Q901.6-18.3 900.3-19.55 899-20.8 896.45-20.8L896.45-20.8Q894.3-20.8 892.5-19.73 890.7-18.65 889.7-16.9L889.7-16.9 889.7-4.9Q889.7-3.85 889.93-3.48 890.15-3.1 890.85-3.05L890.85-3.05 893.6-2.7 893.6 0 882 0 882-2.7 884.55-3.05Q885.3-3.1 885.5-3.48 885.7-3.85 885.7-4.9L885.7-4.9 885.7-19.55Q885.7-20.4 885.45-20.75 885.2-21.1 884.45-21.15L884.45-21.15 882-21.4 882-24 889.1-24 889.55-20.3Q891.35-22.35 893.43-23.43 895.5-24.5 898-24.5L898-24.5Q901.65-24.5 903.63-22.5 905.6-20.5 905.6-17.35L905.6-17.35 905.6-4.9Q905.6-3.85 905.8-3.48 906-3.1 906.75-3.05L906.75-3.05ZM932.65-3.05L935.25-2.7 935.25 0 928.15 0 927.75-3.95Q925.5-1.75 923.5-0.63 921.5 0.5 919.4 0.5L919.4 0.5Q916.4 0.5 914.62-1.28 912.85-3.05 912.85-6L912.85-6Q912.85-8.95 914.62-10.78 916.4-12.6 919.7-13.05L919.7-13.05 927.55-14.15 927.55-17.5Q927.55-19.5 926.25-20.5 924.95-21.5 922.45-21.5L922.45-21.5Q919.7-21.5 917.65-20.55L917.65-20.55 917.05-16.9 914.2-16.9 913.8-22.65Q918.85-24.5 923.15-24.5L923.15-24.5Q926.65-24.5 929.1-22.7 931.55-20.9 931.55-17.6L931.55-17.6 931.55-4.9Q931.55-3.85 931.75-3.48 931.95-3.1 932.65-3.05L932.65-3.05ZM917.1-6.35Q917.1-4.7 918-3.8 918.9-2.9 920.45-2.9L920.45-2.9Q922-2.9 923.67-3.9 925.35-4.9 927.55-6.9L927.55-6.9 927.55-11.45 920.9-10.3Q919.05-10 918.07-9 917.1-8 917.1-6.35L917.1-6.35ZM969.19-36L981.24-36 981.24-33.15 979.34-32.9Q978.34-32.75 977.92-32.38 977.49-32 976.84-30.8L976.84-30.8 966.94-12.7 966.94-5.2Q966.94-4.2 967.22-3.83 967.49-3.45 968.39-3.3L968.39-3.3 971.24-2.85 971.24 0 958.49 0 958.49-2.85 961.34-3.3Q962.24-3.45 962.52-3.83 962.79-4.2 962.79-5.2L962.79-5.2 962.79-12.7 952.84-30.8Q952.24-31.85 951.64-32.25 951.04-32.65 949.84-32.9L949.84-32.9 948.44-33.15 948.44-36 961.19-36 961.19-33.2 958.69-32.9Q957.09-32.7 957.09-31.95L957.09-31.95Q957.09-31.6 957.49-30.8L957.49-30.8 965.24-16.55 972.89-30.8Q973.24-31.4 973.24-31.85L973.24-31.85Q973.24-32.55 971.54-32.85L971.54-32.85 969.19-33.2 969.19-36ZM1004.94-3.05L1007.54-2.7 1007.54 0 1000.54 0 1000.14-3.8Q996.24 0.5 991.69 0.5L991.69 0.5Q987.99 0.5 985.97-1.35 983.94-3.2 983.94-6.65L983.94-6.65 983.94-19.2Q983.94-20.3 983.74-20.68 983.54-21.05 982.79-21.1L982.79-21.1 980.19-21.4 980.19-24 987.94-24 987.94-8Q987.94-3.25 992.59-3.25L992.59-3.25Q997.24-3.25 999.84-7.1L999.84-7.1 999.84-19.2Q999.84-20.3 999.62-20.68 999.39-21.05 998.69-21.1L998.69-21.1 995.94-21.4 995.94-24 1003.84-24 1003.84-4.9Q1003.84-3.85 1004.04-3.48 1004.24-3.1 1004.94-3.05L1004.94-3.05ZM1024.39-24L1034.44-24 1034.44-21.4 1032.49-21.1Q1031.49-20.95 1031.04-19.75L1031.04-19.75 1023.74 0 1019.39 0 1011.54-19.95Q1011.34-20.5 1011.01-20.75 1010.69-21 1010.04-21.1L1010.04-21.1 1008.19-21.4 1008.19-24 1019.19-24 1019.19-21.4 1016.54-21.05Q1015.74-21 1015.74-20.35L1015.74-20.35Q1015.74-20 1016.04-19.2L1016.04-19.2 1020.74-6.65 1021.84-3.1 1023.14-6.7 1027.34-19.2Q1027.64-20.1 1027.64-20.35L1027.64-20.35Q1027.64-21 1026.64-21.15L1026.64-21.15 1024.39-21.4 1024.39-24ZM1056.04-3.05L1058.64-2.7 1058.64 0 1051.54 0 1051.14-3.95Q1048.89-1.75 1046.89-0.63 1044.89 0.5 1042.79 0.5L1042.79 0.5Q1039.79 0.5 1038.01-1.28 1036.24-3.05 1036.24-6L1036.24-6Q1036.24-8.95 1038.01-10.78 1039.79-12.6 1043.09-13.05L1043.09-13.05 1050.94-14.15 1050.94-17.5Q1050.94-19.5 1049.64-20.5 1048.34-21.5 1045.84-21.5L1045.84-21.5Q1043.09-21.5 1041.04-20.55L1041.04-20.55 1040.44-16.9 1037.59-16.9 1037.19-22.65Q1042.24-24.5 1046.54-24.5L1046.54-24.5Q1050.04-24.5 1052.49-22.7 1054.94-20.9 1054.94-17.6L1054.94-17.6 1054.94-4.9Q1054.94-3.85 1055.14-3.48 1055.34-3.1 1056.04-3.05L1056.04-3.05ZM1040.49-6.35Q1040.49-4.7 1041.39-3.8 1042.29-2.9 1043.84-2.9L1043.84-2.9Q1045.39-2.9 1047.06-3.9 1048.74-4.9 1050.94-6.9L1050.94-6.9 1050.94-11.45 1044.29-10.3Q1042.44-10 1041.46-9 1040.49-8 1040.49-6.35L1040.49-6.35ZM1089.63 0.5Q1082.13 0.5 1078.38-4.23 1074.63-8.95 1074.63-17.25L1074.63-17.25Q1074.63-26 1078.68-31.25 1082.73-36.5 1090.73-36.5L1090.73-36.5Q1098.23-36.5 1102.01-31.8 1105.78-27.1 1105.78-18.75L1105.78-18.75Q1105.78-10 1101.71-4.75 1097.63 0.5 1089.63 0.5L1089.63 0.5ZM1090.88-3.15Q1096.38-3.15 1098.76-6.6 1101.13-10.05 1101.13-16.95L1101.13-16.95Q1101.13-32.85 1089.48-32.85L1089.48-32.85Q1083.98-32.85 1081.63-29.4 1079.28-25.95 1079.28-19.05L1079.28-19.05Q1079.28-3.15 1090.88-3.15L1090.88-3.15ZM1109.63 0L1109.63-2.7 1112.23-3.05Q1112.93-3.1 1113.15-3.48 1113.38-3.85 1113.38-4.9L1113.38-4.9 1113.38-34.3Q1113.38-35.3 1113.15-35.63 1112.93-35.95 1112.23-36.05L1112.23-36.05 1109.63-36.35 1109.63-39 1117.38-39 1117.38-4.9Q1117.38-3.85 1117.58-3.48 1117.78-3.1 1118.53-3.05L1118.53-3.05 1121.08-2.7 1121.08 0 1109.63 0Z" opacity="1" transform="matrix(1,0,0,1,0,0)" fill="#b2572b" class="slogan-text-1" data-fill-palette-color="secondary" id="text-1"></path></svg></g></svg></g></svg></g></svg></g><g><svg viewBox="0 0 115.61160862135158 108.48160428833006" height="108.48160428833006" width="115.61160862135158"><g><svg xmlns="http://www.w3.org/2000/svg" xmlns:xlink="http://www.w3.org/1999/xlink" version="1.1" x="0" y="0" viewBox="9.504651391614683 12.002 80.99087275144025 75.99600000000001" enable-background="new 0 0 100 100" xml:space="preserve" height="108.48160428833006" width="115.61160862135158" class="icon-icon-0" data-fill-palette-color="accent" id="icon-0"><g fill="#b2572b" data-fill-palette-color="accent"><path d="M62.271 39.18C64.872 39.18 67.272 37.684 69.03 34.969 70.666 32.444 71.566 29.114 71.566 25.592S70.666 18.738 69.03 16.213C67.272 13.498 64.872 12.002 62.271 12.002S57.269 13.498 55.511 16.213C53.875 18.738 52.975 22.07 52.975 25.592S53.875 32.444 55.511 34.969C57.27 37.684 59.671 39.18 62.271 39.18M62.271 14.818C65.783 14.818 68.75 19.752 68.75 25.591S65.782 36.362 62.271 36.362C58.758 36.362 55.791 31.428 55.791 25.591 55.791 19.752 58.759 14.818 62.271 14.818" fill="#b2572b" data-fill-palette-color="accent"></path><path d="M85.869 34.861A6 6 0 0 0 83.719 34.472C79.841 34.472 75.772 38.062 73.824 43.201 72.72 46.115 72.423 49.154 72.985 51.76 73.595 54.588 75.134 56.6 77.32 57.428A6.1 6.1 0 0 0 79.471 57.819C83.35 57.819 87.418 54.229 89.366 49.09 91.763 42.762 90.228 36.514 85.869 34.861M86.732 48.092C85.215 52.096 82.162 55.002 79.471 55.002 79.068 55.002 78.68 54.932 78.318 54.795 77.055 54.316 76.139 53.027 75.738 51.166 75.289 49.084 75.544 46.609 76.458 44.199 77.975 40.195 81.028 37.289 83.719 37.289 84.122 37.289 84.51 37.357 84.872 37.496 87.656 38.551 88.509 43.402 86.732 48.092" fill="#b2572b" data-fill-palette-color="accent"></path><path d="M77.727 77.527C77.727 71.492 72.38 64.021 67.663 57.431 65.88 54.939 64.195 52.585 62.913 50.482 58.801 43.736 53.049 43.007 50.767 43.007 50.426 43.007 50.166 43.023 50.001 43.038A8 8 0 0 0 49.235 43.007C46.953 43.007 41.201 43.736 37.089 50.482 35.807 52.586 34.122 54.939 32.339 57.431 27.621 64.021 22.275 71.492 22.275 77.527L22.274 78.271C22.27 82.664 22.267 85.314 23.818 86.867 24.578 87.629 25.6 87.998 26.944 87.998 27.965 87.998 29.195 87.789 30.818 87.342 33.35 86.643 35.359 85.742 37.302 84.869 40.777 83.31 44.06 81.838 50 81.838 55.942 81.838 59.224 83.311 62.7 84.871 64.643 85.742 66.651 86.642 69.184 87.342 70.806 87.789 72.038 87.998 73.057 87.998H73.058C74.402 87.998 75.425 87.629 76.184 86.867 77.735 85.316 77.732 82.666 77.727 78.275zM74.191 84.877C74.116 84.953 73.887 85.182 73.057 85.182 72.307 85.182 71.285 85 69.932 84.627 67.607 83.984 65.698 83.129 63.851 82.301 60.258 80.69 56.543 79.024 49.999 79.024 43.456 79.024 39.74 80.69 36.147 82.301 34.301 83.129 32.392 83.985 30.067 84.627 28.713 85 27.692 85.182 26.942 85.182 26.112 85.182 25.883 84.953 25.808 84.877 25.082 84.15 25.084 81.559 25.088 78.275V77.527C25.088 72.396 30.155 65.316 34.626 59.07 36.441 56.535 38.155 54.14 39.491 51.947 42.86 46.42 47.426 45.824 49.232 45.824 49.592 45.824 49.804 45.849 49.805 45.849A1.4 1.4 0 0 0 50.182 45.849C50.184 45.849 50.397 45.824 50.764 45.824 52.571 45.824 57.137 46.42 60.505 51.947 61.842 54.14 63.556 56.535 65.37 59.07 69.841 65.316 74.908 72.396 74.908 77.527L74.909 78.277C74.914 81.559 74.917 84.15 74.191 84.877" fill="#b2572b" data-fill-palette-color="accent"></path><path d="M37.729 39.18C40.33 39.18 42.73 37.684 44.488 34.969 46.124 32.444 47.025 29.114 47.025 25.592S46.124 18.738 44.488 16.213C42.73 13.498 40.33 12.002 37.729 12.002S32.728 13.498 30.969 16.213C29.334 18.738 28.433 22.07 28.433 25.592S29.334 32.444 30.969 34.969C32.728 37.684 35.128 39.18 37.729 39.18M37.729 14.818C41.242 14.818 44.208 19.752 44.208 25.591S41.241 36.362 37.729 36.362 31.25 31.43 31.25 25.592C31.25 19.752 34.216 14.818 37.729 14.818" fill="#b2572b" data-fill-palette-color="accent"></path><path d="M27.015 51.76C27.577 49.155 27.279 46.115 26.176 43.201 24.229 38.062 20.159 34.472 16.28 34.472 15.535 34.472 14.811 34.603 14.13 34.861 9.773 36.513 8.237 42.761 10.634 49.09 12.581 54.229 16.65 57.819 20.529 57.819A6 6 0 0 0 22.679 57.428C24.865 56.6 26.405 54.588 27.015 51.76M20.529 55.002C17.839 55.002 14.785 52.096 13.268 48.092 11.492 43.403 12.343 38.551 15.128 37.496A3.2 3.2 0 0 1 16.28 37.289C18.97 37.289 22.025 40.195 23.542 44.199 24.455 46.609 24.711 49.084 24.262 51.166 23.861 53.027 22.944 54.316 21.682 54.795 21.32 54.932 20.932 55.002 20.529 55.002" fill="#b2572b" data-fill-palette-color="accent"></path></g></svg></g></svg></g></svg></g></svg></g><defs></defs></svg><rect width="395.52" height="81.39770036311198" fill="none" stroke="none" visibility="hidden"></rect></g></svg></g></svg>